<svg width="27" height="22" viewBox="0 0 27 22" fill="none" xmlns="http://www.w3.org/2000/svg">
<path d="M11.2281 16.709C9.70064 16.709 8.47272 17.8845 8.47272 19.3119C8.47272 20.7673 9.70064 21.9428 11.2281 21.9428C12.7555 21.9428 13.9834 20.7673 13.9834 19.3119C13.9834 17.8565 12.7555 16.709 11.2281 16.709ZM11.2281 20.2635C10.689 20.2635 10.2697 19.8437 10.2697 19.3119C10.2697 18.8081 10.689 18.3883 11.2281 18.3883C11.7671 18.3883 12.1864 18.8081 12.1864 19.3119C12.1864 19.8157 11.7671 20.2635 11.2281 20.2635Z" fill="#FD874C"/>
<path d="M22.219 16.709C20.6915 16.709 19.4636 17.8845 19.4636 19.3119C19.4636 20.7673 20.6915 21.9428 22.219 21.9428C23.7464 21.9428 24.9743 20.7673 24.9743 19.3119C24.9444 17.8565 23.7164 16.709 22.219 16.709ZM22.219 20.2635C21.6799 20.2635 21.2606 19.8437 21.2606 19.3119C21.2606 18.8081 21.6799 18.3883 22.219 18.3883C22.758 18.3883 23.1773 18.8081 23.1773 19.3119C23.1474 19.8157 22.7281 20.2635 22.219 20.2635Z" fill="#FD874C"/>
<path d="M25.9927 3.27463C25.813 3.05073 25.5435 2.93877 25.2739 2.93877H7.51398L7.12464 1.76326C6.76525 0.699708 5.74697 0 4.549 0H1.76371C1.25458 0 0.865234 0.363848 0.865234 0.83965C0.865234 1.31545 1.25458 1.6793 1.76371 1.6793H4.549C4.93834 1.6793 5.29773 1.90321 5.41753 2.26705L8.68201 11.895L8.65206 11.979C8.26271 12.8466 8.35256 13.8262 8.89165 14.6379C9.46069 15.4216 10.3891 15.8974 11.4074 15.8974H23.6866C24.1957 15.8974 24.5851 15.5335 24.5851 15.0577C24.5851 14.5819 24.1957 14.2181 23.6866 14.2181H11.4074C10.9881 14.2181 10.6287 14.0222 10.4191 13.7143C10.2094 13.4064 10.1495 13.0146 10.2993 12.6787H20.8115C22.249 12.6787 23.5069 11.8111 23.9562 10.5236L26.1425 4.03032C26.2023 3.77842 26.1425 3.49854 25.9927 3.27463ZM20.7815 10.9994H10.2394L8.08302 4.61807H24.046L22.249 10.0198C22.0094 10.6076 21.4404 10.9994 20.7815 10.9994Z" fill="#FD874C"/>
</svg>
