<svg width="287" height="65" viewBox="0 0 287 65" fill="none" xmlns="http://www.w3.org/2000/svg">
<rect width="287" height="65" fill="#E5E5E5"/>
<g clip-path="url(#clip0_0_1)">
<rect width="1440" height="1890" transform="translate(-583 -1244)" fill="#EFEFEF"/>
<rect x="-583" y="-35" width="1440" height="679" fill="white"/>
<mask id="path-2-outside-1_0_1" maskUnits="userSpaceOnUse" x="-2" y="8" width="280" height="56" fill="black">
<rect fill="white" x="-2" y="8" width="280" height="56"/>
<path d="M41.9688 35.3438V37.1875C41.9688 40.6667 41.4792 43.7917 40.5 46.5625C39.5417 49.3125 38.1771 51.6667 36.4062 53.625C34.6354 55.5625 32.5417 57.0521 30.125 58.0938C27.7083 59.1146 25.0417 59.625 22.125 59.625C19.1875 59.625 16.5 59.1146 14.0625 58.0938C11.6458 57.0521 9.54167 55.5625 7.75 53.625C5.97917 51.6667 4.60417 49.3125 3.625 46.5625C2.66667 43.7917 2.1875 40.6667 2.1875 37.1875V35.3438C2.1875 31.8646 2.66667 28.7396 3.625 25.9688C4.60417 23.1979 5.96875 20.8438 7.71875 18.9062C9.48958 16.9479 11.5833 15.4583 14 14.4375C16.4375 13.3958 19.125 12.875 22.0625 12.875C24.9792 12.875 27.6458 13.3958 30.0625 14.4375C32.5 15.4583 34.6042 16.9479 36.375 18.9062C38.1458 20.8438 39.5208 23.1979 40.5 25.9688C41.4792 28.7396 41.9688 31.8646 41.9688 35.3438ZM30.8438 37.1875V35.2812C30.8438 33.0312 30.6458 31.0521 30.25 29.3438C29.875 27.6146 29.3125 26.1667 28.5625 25C27.8125 23.8333 26.8854 22.9583 25.7812 22.375C24.6979 21.7708 23.4583 21.4688 22.0625 21.4688C20.6042 21.4688 19.3333 21.7708 18.25 22.375C17.1667 22.9583 16.2604 23.8333 15.5312 25C14.8021 26.1667 14.25 27.6146 13.875 29.3438C13.5208 31.0521 13.3438 33.0312 13.3438 35.2812V37.1875C13.3438 39.4167 13.5208 41.3958 13.875 43.125C14.25 44.8333 14.8021 46.2812 15.5312 47.4688C16.2812 48.6562 17.1979 49.5521 18.2812 50.1562C19.3854 50.7604 20.6667 51.0625 22.125 51.0625C23.5208 51.0625 24.7604 50.7604 25.8438 50.1562C26.9271 49.5521 27.8333 48.6562 28.5625 47.4688C29.3125 46.2812 29.875 44.8333 30.25 43.125C30.6458 41.3958 30.8438 39.4167 30.8438 37.1875ZM58.625 13.5V59H47.6562V13.5H58.625ZM76.3125 32.4375V40.875H55.5V32.4375H76.3125ZM78.0938 13.5V21.9688H55.5V13.5H78.0938ZM113.969 50.5625V59H89.7188V50.5625H113.969ZM93.625 13.5V59H82.6562V13.5H93.625ZM110.844 31.5625V39.7188H89.7188V31.5625H110.844ZM114.062 13.5V21.9688H89.7188V13.5H114.062ZM118.469 13.5H136.375C139.875 13.5 142.917 14.0208 145.5 15.0625C148.083 16.1042 150.073 17.6458 151.469 19.6875C152.885 21.7292 153.594 24.25 153.594 27.25C153.594 29.8542 153.188 32.0312 152.375 33.7812C151.562 35.5312 150.427 36.9792 148.969 38.125C147.531 39.25 145.854 40.1771 143.938 40.9062L140.344 42.9375H125.312L125.25 34.4688H136.375C137.771 34.4688 138.927 34.2188 139.844 33.7188C140.76 33.2188 141.448 32.5104 141.906 31.5938C142.385 30.6562 142.625 29.5417 142.625 28.25C142.625 26.9375 142.385 25.8125 141.906 24.875C141.427 23.9375 140.719 23.2188 139.781 22.7188C138.865 22.2188 137.729 21.9688 136.375 21.9688H129.438V59H118.469V13.5ZM143.375 59L133.312 38.875L144.938 38.8125L155.125 58.5312V59H143.375ZM180.688 13.5V59H169.719V13.5H180.688ZM194.375 13.5V21.9688H156.344V13.5H194.375ZM214.5 23.0625L203.406 59H191.625L208.344 13.5H215.812L214.5 23.0625ZM223.688 59L212.562 23.0625L211.125 13.5H218.688L235.5 59H223.688ZM223.25 42.0312V50.5H199.906V42.0312H223.25ZM262.281 46.9062C262.281 46.1979 262.177 45.5625 261.969 45C261.76 44.4167 261.375 43.875 260.812 43.375C260.25 42.875 259.438 42.375 258.375 41.875C257.333 41.3542 255.958 40.8125 254.25 40.25C252.25 39.5833 250.323 38.8333 248.469 38C246.615 37.1458 244.958 36.1562 243.5 35.0312C242.042 33.8854 240.885 32.5521 240.031 31.0312C239.177 29.4896 238.75 27.6979 238.75 25.6562C238.75 23.6979 239.188 21.9375 240.062 20.375C240.938 18.7917 242.156 17.4479 243.719 16.3438C245.302 15.2188 247.156 14.3646 249.281 13.7812C251.406 13.1771 253.729 12.875 256.25 12.875C259.583 12.875 262.521 13.4583 265.062 14.625C267.625 15.7708 269.625 17.4062 271.062 19.5312C272.521 21.6354 273.25 24.125 273.25 27H262.344C262.344 25.8542 262.104 24.8438 261.625 23.9688C261.167 23.0938 260.469 22.4062 259.531 21.9062C258.594 21.4062 257.417 21.1562 256 21.1562C254.625 21.1562 253.469 21.3646 252.531 21.7812C251.594 22.1979 250.885 22.7604 250.406 23.4688C249.927 24.1562 249.688 24.9167 249.688 25.75C249.688 26.4375 249.875 27.0625 250.25 27.625C250.646 28.1667 251.198 28.6771 251.906 29.1562C252.635 29.6354 253.51 30.0938 254.531 30.5312C255.573 30.9688 256.74 31.3958 258.031 31.8125C260.448 32.5833 262.594 33.4479 264.469 34.4062C266.365 35.3438 267.958 36.4167 269.25 37.625C270.562 38.8125 271.552 40.1667 272.219 41.6875C272.906 43.2083 273.25 44.9271 273.25 46.8438C273.25 48.8854 272.854 50.6979 272.062 52.2812C271.271 53.8646 270.135 55.2083 268.656 56.3125C267.177 57.3958 265.406 58.2188 263.344 58.7812C261.281 59.3438 258.979 59.625 256.438 59.625C254.104 59.625 251.802 59.3333 249.531 58.75C247.281 58.1458 245.24 57.2292 243.406 56C241.573 54.75 240.104 53.1562 239 51.2188C237.917 49.2604 237.375 46.9375 237.375 44.25H248.375C248.375 45.5833 248.552 46.7083 248.906 47.625C249.26 48.5417 249.781 49.2812 250.469 49.8438C251.156 50.3854 252 50.7812 253 51.0312C254 51.2604 255.146 51.375 256.438 51.375C257.833 51.375 258.958 51.1771 259.812 50.7812C260.667 50.3646 261.292 49.8229 261.688 49.1562C262.083 48.4688 262.281 47.7188 262.281 46.9062Z"/>
</mask>
<g filter="url(#filter0_i_0_1)">
<path d="M41.9688 35.3438V37.1875C41.9688 40.6667 41.4792 43.7917 40.5 46.5625C39.5417 49.3125 38.1771 51.6667 36.4062 53.625C34.6354 55.5625 32.5417 57.0521 30.125 58.0938C27.7083 59.1146 25.0417 59.625 22.125 59.625C19.1875 59.625 16.5 59.1146 14.0625 58.0938C11.6458 57.0521 9.54167 55.5625 7.75 53.625C5.97917 51.6667 4.60417 49.3125 3.625 46.5625C2.66667 43.7917 2.1875 40.6667 2.1875 37.1875V35.3438C2.1875 31.8646 2.66667 28.7396 3.625 25.9688C4.60417 23.1979 5.96875 20.8438 7.71875 18.9062C9.48958 16.9479 11.5833 15.4583 14 14.4375C16.4375 13.3958 19.125 12.875 22.0625 12.875C24.9792 12.875 27.6458 13.3958 30.0625 14.4375C32.5 15.4583 34.6042 16.9479 36.375 18.9062C38.1458 20.8438 39.5208 23.1979 40.5 25.9688C41.4792 28.7396 41.9688 31.8646 41.9688 35.3438ZM30.8438 37.1875V35.2812C30.8438 33.0312 30.6458 31.0521 30.25 29.3438C29.875 27.6146 29.3125 26.1667 28.5625 25C27.8125 23.8333 26.8854 22.9583 25.7812 22.375C24.6979 21.7708 23.4583 21.4688 22.0625 21.4688C20.6042 21.4688 19.3333 21.7708 18.25 22.375C17.1667 22.9583 16.2604 23.8333 15.5312 25C14.8021 26.1667 14.25 27.6146 13.875 29.3438C13.5208 31.0521 13.3438 33.0312 13.3438 35.2812V37.1875C13.3438 39.4167 13.5208 41.3958 13.875 43.125C14.25 44.8333 14.8021 46.2812 15.5312 47.4688C16.2812 48.6562 17.1979 49.5521 18.2812 50.1562C19.3854 50.7604 20.6667 51.0625 22.125 51.0625C23.5208 51.0625 24.7604 50.7604 25.8438 50.1562C26.9271 49.5521 27.8333 48.6562 28.5625 47.4688C29.3125 46.2812 29.875 44.8333 30.25 43.125C30.6458 41.3958 30.8438 39.4167 30.8438 37.1875ZM58.625 13.5V59H47.6562V13.5H58.625ZM76.3125 32.4375V40.875H55.5V32.4375H76.3125ZM78.0938 13.5V21.9688H55.5V13.5H78.0938ZM113.969 50.5625V59H89.7188V50.5625H113.969ZM93.625 13.5V59H82.6562V13.5H93.625ZM110.844 31.5625V39.7188H89.7188V31.5625H110.844ZM114.062 13.5V21.9688H89.7188V13.5H114.062ZM118.469 13.5H136.375C139.875 13.5 142.917 14.0208 145.5 15.0625C148.083 16.1042 150.073 17.6458 151.469 19.6875C152.885 21.7292 153.594 24.25 153.594 27.25C153.594 29.8542 153.188 32.0312 152.375 33.7812C151.562 35.5312 150.427 36.9792 148.969 38.125C147.531 39.25 145.854 40.1771 143.938 40.9062L140.344 42.9375H125.312L125.25 34.4688H136.375C137.771 34.4688 138.927 34.2188 139.844 33.7188C140.76 33.2188 141.448 32.5104 141.906 31.5938C142.385 30.6562 142.625 29.5417 142.625 28.25C142.625 26.9375 142.385 25.8125 141.906 24.875C141.427 23.9375 140.719 23.2188 139.781 22.7188C138.865 22.2188 137.729 21.9688 136.375 21.9688H129.438V59H118.469V13.5ZM143.375 59L133.312 38.875L144.938 38.8125L155.125 58.5312V59H143.375ZM180.688 13.5V59H169.719V13.5H180.688ZM194.375 13.5V21.9688H156.344V13.5H194.375ZM214.5 23.0625L203.406 59H191.625L208.344 13.5H215.812L214.5 23.0625ZM223.688 59L212.562 23.0625L211.125 13.5H218.688L235.5 59H223.688ZM223.25 42.0312V50.5H199.906V42.0312H223.25ZM262.281 46.9062C262.281 46.1979 262.177 45.5625 261.969 45C261.76 44.4167 261.375 43.875 260.812 43.375C260.25 42.875 259.438 42.375 258.375 41.875C257.333 41.3542 255.958 40.8125 254.25 40.25C252.25 39.5833 250.323 38.8333 248.469 38C246.615 37.1458 244.958 36.1562 243.5 35.0312C242.042 33.8854 240.885 32.5521 240.031 31.0312C239.177 29.4896 238.75 27.6979 238.75 25.6562C238.75 23.6979 239.188 21.9375 240.062 20.375C240.938 18.7917 242.156 17.4479 243.719 16.3438C245.302 15.2188 247.156 14.3646 249.281 13.7812C251.406 13.1771 253.729 12.875 256.25 12.875C259.583 12.875 262.521 13.4583 265.062 14.625C267.625 15.7708 269.625 17.4062 271.062 19.5312C272.521 21.6354 273.25 24.125 273.25 27H262.344C262.344 25.8542 262.104 24.8438 261.625 23.9688C261.167 23.0938 260.469 22.4062 259.531 21.9062C258.594 21.4062 257.417 21.1562 256 21.1562C254.625 21.1562 253.469 21.3646 252.531 21.7812C251.594 22.1979 250.885 22.7604 250.406 23.4688C249.927 24.1562 249.688 24.9167 249.688 25.75C249.688 26.4375 249.875 27.0625 250.25 27.625C250.646 28.1667 251.198 28.6771 251.906 29.1562C252.635 29.6354 253.51 30.0938 254.531 30.5312C255.573 30.9688 256.74 31.3958 258.031 31.8125C260.448 32.5833 262.594 33.4479 264.469 34.4062C266.365 35.3438 267.958 36.4167 269.25 37.625C270.562 38.8125 271.552 40.1667 272.219 41.6875C272.906 43.2083 273.25 44.9271 273.25 46.8438C273.25 48.8854 272.854 50.6979 272.062 52.2812C271.271 53.8646 270.135 55.2083 268.656 56.3125C267.177 57.3958 265.406 58.2188 263.344 58.7812C261.281 59.3438 258.979 59.625 256.438 59.625C254.104 59.625 251.802 59.3333 249.531 58.75C247.281 58.1458 245.24 57.2292 243.406 56C241.573 54.75 240.104 53.1562 239 51.2188C237.917 49.2604 237.375 46.9375 237.375 44.25H248.375C248.375 45.5833 248.552 46.7083 248.906 47.625C249.26 48.5417 249.781 49.2812 250.469 49.8438C251.156 50.3854 252 50.7812 253 51.0312C254 51.2604 255.146 51.375 256.438 51.375C257.833 51.375 258.958 51.1771 259.812 50.7812C260.667 50.3646 261.292 49.8229 261.688 49.1562C262.083 48.4688 262.281 47.7188 262.281 46.9062Z" fill="white"/>
</g>
<path d="M40.5 46.5625L36.7286 45.2297L36.7257 45.238L36.7228 45.2462L40.5 46.5625ZM36.4062 53.625L39.3588 56.3236L39.366 56.3157L39.3731 56.3078L36.4062 53.625ZM30.125 58.0938L31.6815 61.7785L31.6949 61.7728L31.7083 61.767L30.125 58.0938ZM14.0625 58.0938L12.4792 61.767L12.4982 61.7752L12.5173 61.7833L14.0625 58.0938ZM7.75 53.625L4.78311 56.3078L4.79807 56.3244L4.81321 56.3407L7.75 53.625ZM3.625 46.5625L-0.155282 47.87L-0.149348 47.8871L-0.143258 47.9042L3.625 46.5625ZM3.625 25.9688L-0.146438 24.636L-0.150902 24.6486L-0.155282 24.6613L3.625 25.9688ZM7.71875 18.9062L4.75186 16.2234L4.75034 16.2251L7.71875 18.9062ZM14 14.4375L15.5565 18.1222L15.5642 18.119L15.5719 18.1157L14 14.4375ZM30.0625 14.4375L28.4792 18.1108L28.4982 18.119L28.5173 18.127L30.0625 14.4375ZM36.375 18.9062L33.4081 21.5891L33.4152 21.597L33.4224 21.6048L36.375 18.9062ZM40.5 25.9688L36.7286 27.3015L40.5 25.9688ZM30.25 29.3438L26.3409 30.1915L26.3469 30.2191L26.3532 30.2467L30.25 29.3438ZM25.7812 22.375L23.833 25.8685L23.8726 25.8906L23.9128 25.9118L25.7812 22.375ZM18.25 22.375L20.1464 25.8969L20.1724 25.8829L20.1983 25.8685L18.25 22.375ZM15.5312 25L12.1393 22.88L15.5312 25ZM13.875 29.3438L9.96587 28.496L9.962 28.5138L9.95829 28.5317L13.875 29.3438ZM13.875 43.125L9.95635 43.9276L9.96199 43.9552L9.96802 43.9826L13.875 43.125ZM15.5312 47.4688L12.1226 49.5618L12.1358 49.5833L12.1493 49.6047L15.5312 47.4688ZM18.2812 50.1562L16.333 53.6497L16.3471 53.6576L16.3612 53.6653L18.2812 50.1562ZM28.5625 47.4688L25.1805 45.3328L25.167 45.3542L25.1538 45.3757L28.5625 47.4688ZM30.25 43.125L26.3509 42.2324L26.3469 42.2499L26.343 42.2674L30.25 43.125ZM37.9688 35.3438V37.1875H45.9688V35.3438H37.9688ZM37.9688 37.1875C37.9688 40.2941 37.5315 42.9575 36.7286 45.2297L44.2714 47.8953C45.4268 44.6258 45.9688 41.0393 45.9688 37.1875H37.9688ZM36.7228 45.2462C35.9223 47.5433 34.8161 49.4197 33.4394 50.9422L39.3731 56.3078C41.5381 53.9137 43.1611 51.0817 44.2772 47.8788L36.7228 45.2462ZM33.4537 50.9264C32.0661 52.4446 30.4394 53.6025 28.5417 54.4205L31.7083 61.767C34.6439 60.5017 37.2047 58.6804 39.3588 56.3236L33.4537 50.9264ZM28.5685 54.409C26.6967 55.1997 24.5669 55.625 22.125 55.625V63.625C25.5165 63.625 28.72 63.0295 31.6815 61.7785L28.5685 54.409ZM22.125 55.625C19.6588 55.625 17.5039 55.1984 15.6077 54.4042L12.5173 61.7833C15.4961 63.0308 18.7162 63.625 22.125 63.625V55.625ZM15.6458 54.4205C13.7437 53.6006 12.1002 52.4377 10.6868 50.9093L4.81321 56.3407C6.98312 58.6873 9.54796 60.5036 12.4792 61.767L15.6458 54.4205ZM10.7169 50.9422C9.33425 49.4131 8.21472 47.5279 7.39326 45.2208L-0.143258 47.9042C0.993612 51.0971 2.62409 53.9202 4.78311 56.3078L10.7169 50.9422ZM7.40528 45.255C6.61668 42.975 6.1875 40.3025 6.1875 37.1875H-1.8125C-1.8125 41.0308 -1.28335 44.6084 -0.155282 47.87L7.40528 45.255ZM6.1875 37.1875V35.3438H-1.8125V37.1875H6.1875ZM6.1875 35.3438C6.1875 32.2287 6.61668 29.5563 7.40528 27.2762L-0.155282 24.6613C-1.28335 27.9229 -1.8125 31.5005 -1.8125 35.3438H6.1875ZM7.39644 27.3015C8.22165 24.9663 9.33307 23.0866 10.6872 21.5874L4.75034 16.2251C2.60443 18.6009 0.986686 21.4295 -0.146438 24.636L7.39644 27.3015ZM10.6856 21.5891C12.0677 20.0607 13.681 18.9145 15.5565 18.1222L12.4435 10.7528C9.4857 12.0022 6.91151 13.8351 4.75186 16.2234L10.6856 21.5891ZM15.5719 18.1157C17.4613 17.3083 19.6067 16.875 22.0625 16.875V8.875C18.6433 8.875 15.4137 9.48341 12.4281 10.7593L15.5719 18.1157ZM22.0625 16.875C24.4939 16.875 26.6142 17.3069 28.4792 18.1108L31.6458 10.7642C28.6775 9.48474 25.4645 8.875 22.0625 8.875V16.875ZM28.5173 18.127C30.4132 18.921 32.0318 20.0671 33.4081 21.5891L39.3419 16.2234C37.1765 13.8288 34.5868 11.9957 31.6077 10.748L28.5173 18.127ZM33.4224 21.6048C34.7906 23.1018 35.9067 24.9758 36.7286 27.3015L44.2714 24.636C43.135 21.4201 41.501 18.5857 39.3276 16.2077L33.4224 21.6048ZM36.7286 27.3015C37.5315 29.5737 37.9688 32.2372 37.9688 35.3438H45.9688C45.9688 31.492 45.4268 27.9055 44.2714 24.636L36.7286 27.3015ZM34.8438 37.1875V35.2812H26.8438V37.1875H34.8438ZM34.8438 35.2812C34.8438 32.8081 34.6273 30.5148 34.1468 28.4408L26.3532 30.2467C26.6644 31.5894 26.8438 33.2544 26.8438 35.2812H34.8438ZM34.1591 28.496C33.7094 26.4224 32.9962 24.4998 31.9272 22.837L25.1978 27.163C25.6288 27.8335 26.0406 28.8068 26.3409 30.1915L34.1591 28.496ZM31.9272 22.837C30.8471 21.1568 29.4279 19.7776 27.6497 18.8382L23.9128 25.9118C24.343 26.1391 24.7779 26.5099 25.1978 27.163L31.9272 22.837ZM27.7295 18.8815C25.979 17.9053 24.0534 17.4688 22.0625 17.4688V25.4688C22.8633 25.4688 23.4169 25.6364 23.833 25.8685L27.7295 18.8815ZM22.0625 17.4688C20.0425 17.4688 18.0776 17.8911 16.3017 18.8815L20.1983 25.8685C20.589 25.6505 21.1658 25.4688 22.0625 25.4688V17.4688ZM16.3536 18.8531C14.5886 19.8035 13.1923 21.1952 12.1393 22.88L18.9232 27.12C19.3286 26.4715 19.7447 26.1132 20.1464 25.8969L16.3536 18.8531ZM12.1393 22.88C11.107 24.5316 10.412 26.4387 9.96587 28.496L17.7841 30.1915C18.088 28.7905 18.4971 27.8018 18.9232 27.12L12.1393 22.88ZM9.95829 28.5317C9.53551 30.571 9.34375 32.8324 9.34375 35.2812H17.3438C17.3438 33.2301 17.5062 31.5332 17.7917 30.1558L9.95829 28.5317ZM9.34375 35.2812V37.1875H17.3438V35.2812H9.34375ZM9.34375 37.1875C9.34375 39.6195 9.53616 41.8761 9.95635 43.9276L17.7936 42.3224C17.5055 40.9156 17.3438 39.2139 17.3438 37.1875H9.34375ZM9.96802 43.9826C10.4155 46.0211 11.1084 47.9102 12.1226 49.5618L18.9399 45.3757C18.4958 44.6523 18.0845 43.6456 17.782 42.2674L9.96802 43.9826ZM12.1493 49.6047C13.2084 51.2816 14.5922 52.6789 16.333 53.6497L20.2295 46.6628C19.8036 46.4253 19.3541 46.0309 18.9132 45.3328L12.1493 49.6047ZM16.3612 53.6653C18.1415 54.6394 20.1028 55.0625 22.125 55.0625V47.0625C21.2305 47.0625 20.6294 46.8814 20.2013 46.6472L16.3612 53.6653ZM22.125 55.0625C24.1159 55.0625 26.0415 54.626 27.792 53.6497L23.8955 46.6628C23.4794 46.8949 22.9258 47.0625 22.125 47.0625V55.0625ZM27.792 53.6497C29.5451 52.672 30.9284 51.2601 31.9712 49.5618L25.1538 45.3757C24.7383 46.0524 24.309 46.4322 23.8955 46.6628L27.792 53.6497ZM31.9445 49.6047C32.9947 47.9419 33.7059 46.0375 34.157 43.9826L26.343 42.2674C26.0441 43.6292 25.6303 44.6206 25.1805 45.3328L31.9445 49.6047ZM34.1491 44.0176C34.6265 41.9322 34.8438 39.6441 34.8438 37.1875H26.8438C26.8438 39.1892 26.6652 40.8595 26.3509 42.2324L34.1491 44.0176ZM58.625 13.5H62.625V9.5H58.625V13.5ZM58.625 59V63H62.625V59H58.625ZM47.6562 59H43.6562V63H47.6562V59ZM47.6562 13.5V9.5H43.6562V13.5H47.6562ZM76.3125 32.4375H80.3125V28.4375H76.3125V32.4375ZM76.3125 40.875V44.875H80.3125V40.875H76.3125ZM55.5 40.875H51.5V44.875H55.5V40.875ZM55.5 32.4375V28.4375H51.5V32.4375H55.5ZM78.0938 13.5H82.0938V9.5H78.0938V13.5ZM78.0938 21.9688V25.9688H82.0938V21.9688H78.0938ZM55.5 21.9688H51.5V25.9688H55.5V21.9688ZM55.5 13.5V9.5H51.5V13.5H55.5ZM54.625 13.5V59H62.625V13.5H54.625ZM58.625 55H47.6562V63H58.625V55ZM51.6562 59V13.5H43.6562V59H51.6562ZM47.6562 17.5H58.625V9.5H47.6562V17.5ZM72.3125 32.4375V40.875H80.3125V32.4375H72.3125ZM76.3125 36.875H55.5V44.875H76.3125V36.875ZM59.5 40.875V32.4375H51.5V40.875H59.5ZM55.5 36.4375H76.3125V28.4375H55.5V36.4375ZM74.0938 13.5V21.9688H82.0938V13.5H74.0938ZM78.0938 17.9688H55.5V25.9688H78.0938V17.9688ZM59.5 21.9688V13.5H51.5V21.9688H59.5ZM55.5 17.5H78.0938V9.5H55.5V17.5ZM113.969 50.5625H117.969V46.5625H113.969V50.5625ZM113.969 59V63H117.969V59H113.969ZM89.7188 59H85.7188V63H89.7188V59ZM89.7188 50.5625V46.5625H85.7188V50.5625H89.7188ZM93.625 13.5H97.625V9.5H93.625V13.5ZM93.625 59V63H97.625V59H93.625ZM82.6562 59H78.6562V63H82.6562V59ZM82.6562 13.5V9.5H78.6562V13.5H82.6562ZM110.844 31.5625H114.844V27.5625H110.844V31.5625ZM110.844 39.7188V43.7188H114.844V39.7188H110.844ZM89.7188 39.7188H85.7188V43.7188H89.7188V39.7188ZM89.7188 31.5625V27.5625H85.7188V31.5625H89.7188ZM114.062 13.5H118.062V9.5H114.062V13.5ZM114.062 21.9688V25.9688H118.062V21.9688H114.062ZM89.7188 21.9688H85.7188V25.9688H89.7188V21.9688ZM89.7188 13.5V9.5H85.7188V13.5H89.7188ZM109.969 50.5625V59H117.969V50.5625H109.969ZM113.969 55H89.7188V63H113.969V55ZM93.7188 59V50.5625H85.7188V59H93.7188ZM89.7188 54.5625H113.969V46.5625H89.7188V54.5625ZM89.625 13.5V59H97.625V13.5H89.625ZM93.625 55H82.6562V63H93.625V55ZM86.6562 59V13.5H78.6562V59H86.6562ZM82.6562 17.5H93.625V9.5H82.6562V17.5ZM106.844 31.5625V39.7188H114.844V31.5625H106.844ZM110.844 35.7188H89.7188V43.7188H110.844V35.7188ZM93.7188 39.7188V31.5625H85.7188V39.7188H93.7188ZM89.7188 35.5625H110.844V27.5625H89.7188V35.5625ZM110.062 13.5V21.9688H118.062V13.5H110.062ZM114.062 17.9688H89.7188V25.9688H114.062V17.9688ZM93.7188 21.9688V13.5H85.7188V21.9688H93.7188ZM89.7188 17.5H114.062V9.5H89.7188V17.5ZM118.469 13.5V9.5H114.469V13.5H118.469ZM145.5 15.0625L144.004 18.7723L145.5 15.0625ZM151.469 19.6875L148.167 21.945L148.174 21.9565L148.182 21.9678L151.469 19.6875ZM148.969 38.125L151.434 41.275L151.44 41.2703L148.969 38.125ZM143.938 40.9062L142.515 37.1677L142.233 37.2752L141.969 37.424L143.938 40.9062ZM140.344 42.9375V46.9375H141.396L142.312 46.4198L140.344 42.9375ZM125.312 42.9375L121.313 42.967L121.342 46.9375H125.312V42.9375ZM125.25 34.4688V30.4688H121.22L121.25 34.4983L125.25 34.4688ZM141.906 31.5938L138.345 29.7733L138.336 29.7891L138.329 29.8049L141.906 31.5938ZM139.781 22.7188L137.866 26.2303L137.882 26.2393L137.899 26.2482L139.781 22.7188ZM129.438 21.9688V17.9688H125.438V21.9688H129.438ZM129.438 59V63H133.438V59H129.438ZM118.469 59H114.469V63H118.469V59ZM143.375 59L139.797 60.7889L140.903 63H143.375V59ZM133.312 38.875L133.291 34.8751L126.858 34.9096L129.735 40.6639L133.312 38.875ZM144.938 38.8125L148.491 36.9765L147.366 34.7994L144.916 34.8126L144.938 38.8125ZM155.125 58.5312H159.125V57.559L158.679 56.6952L155.125 58.5312ZM155.125 59V63H159.125V59H155.125ZM118.469 17.5H136.375V9.5H118.469V17.5ZM136.375 17.5C139.489 17.5 142.001 17.9646 144.004 18.7723L146.996 11.3527C143.832 10.0771 140.261 9.5 136.375 9.5V17.5ZM144.004 18.7723C145.951 19.5573 147.271 20.6353 148.167 21.945L154.771 17.43C152.875 14.6564 150.216 12.6511 146.996 11.3527L144.004 18.7723ZM148.182 21.9678C149.045 23.2113 149.594 24.8932 149.594 27.25H157.594C157.594 23.6068 156.726 20.247 154.755 17.4072L148.182 21.9678ZM149.594 27.25C149.594 29.4651 149.245 31.0252 148.747 32.0968L156.003 35.4657C157.13 33.0373 157.594 30.2433 157.594 27.25H149.594ZM148.747 32.0968C148.189 33.2994 147.44 34.2389 146.497 34.9797L151.44 41.2703C153.414 39.7195 154.936 37.7631 156.003 35.4657L148.747 32.0968ZM146.504 34.975C145.418 35.8242 144.102 36.5639 142.515 37.1677L145.36 44.6448C147.606 43.7903 149.644 42.6758 151.434 41.275L146.504 34.975ZM141.969 37.424L138.376 39.4552L142.312 46.4198L145.906 44.3885L141.969 37.424ZM140.344 38.9375H125.312V46.9375H140.344V38.9375ZM129.312 42.908L129.25 34.4392L121.25 34.4983L121.313 42.967L129.312 42.908ZM125.25 38.4688H136.375V30.4688H125.25V38.4688ZM136.375 38.4688C138.223 38.4688 140.09 38.1406 141.759 37.2303L137.928 30.2072C137.764 30.2969 137.318 30.4688 136.375 30.4688V38.4688ZM141.759 37.2303C143.378 36.3471 144.653 35.0443 145.484 33.3826L138.329 29.8049C138.243 29.9765 138.142 30.0904 137.928 30.2072L141.759 37.2303ZM145.468 33.4142C146.293 31.7995 146.625 30.0333 146.625 28.25H138.625C138.625 29.0501 138.478 29.513 138.345 29.7733L145.468 33.4142ZM146.625 28.25C146.625 26.4574 146.298 24.6776 145.468 23.0546L138.345 26.6954C138.473 26.9474 138.625 27.4176 138.625 28.25H146.625ZM145.468 23.0546C144.613 21.3821 143.315 20.0702 141.664 19.1893L137.899 26.2482C138.122 26.3673 138.241 26.4929 138.345 26.6954L145.468 23.0546ZM141.697 19.2072C140.044 18.3055 138.205 17.9688 136.375 17.9688V25.9688C137.253 25.9688 137.686 26.132 137.866 26.2303L141.697 19.2072ZM136.375 17.9688H129.438V25.9688H136.375V17.9688ZM125.438 21.9688V59H133.438V21.9688H125.438ZM129.438 55H118.469V63H129.438V55ZM122.469 59V13.5H114.469V59H122.469ZM146.953 57.2111L136.89 37.0861L129.735 40.6639L139.797 60.7889L146.953 57.2111ZM133.334 42.8749L144.959 42.8124L144.916 34.8126L133.291 34.8751L133.334 42.8749ZM141.384 40.6485L151.571 60.3673L158.679 56.6952L148.491 36.9765L141.384 40.6485ZM151.125 58.5312V59H159.125V58.5312H151.125ZM155.125 55H143.375V63H155.125V55ZM180.688 13.5H184.688V9.5H180.688V13.5ZM180.688 59V63H184.688V59H180.688ZM169.719 59H165.719V63H169.719V59ZM169.719 13.5V9.5H165.719V13.5H169.719ZM194.375 13.5H198.375V9.5H194.375V13.5ZM194.375 21.9688V25.9688H198.375V21.9688H194.375ZM156.344 21.9688H152.344V25.9688H156.344V21.9688ZM156.344 13.5V9.5H152.344V13.5H156.344ZM176.688 13.5V59H184.688V13.5H176.688ZM180.688 55H169.719V63H180.688V55ZM173.719 59V13.5H165.719V59H173.719ZM169.719 17.5H180.688V9.5H169.719V17.5ZM190.375 13.5V21.9688H198.375V13.5H190.375ZM194.375 17.9688H156.344V25.9688H194.375V17.9688ZM160.344 21.9688V13.5H152.344V21.9688H160.344ZM156.344 17.5H194.375V9.5H156.344V17.5ZM214.5 23.0625L218.322 24.2423L218.418 23.9301L218.463 23.6064L214.5 23.0625ZM203.406 59V63H206.358L207.228 60.1798L203.406 59ZM191.625 59L187.87 57.6204L185.894 63H191.625V59ZM208.344 13.5V9.5H205.552L204.589 12.1204L208.344 13.5ZM215.812 13.5L219.775 14.0439L220.399 9.5H215.812V13.5ZM223.688 59L219.866 60.1829L220.738 63H223.688V59ZM212.562 23.0625L208.607 23.6571L208.652 23.9563L208.741 24.2454L212.562 23.0625ZM211.125 13.5V9.5H206.479L207.169 14.0946L211.125 13.5ZM218.688 13.5L222.44 12.1136L221.474 9.5H218.688V13.5ZM235.5 59V63H241.242L239.252 57.6136L235.5 59ZM223.25 42.0312H227.25V38.0312H223.25V42.0312ZM223.25 50.5V54.5H227.25V50.5H223.25ZM199.906 50.5H195.906V54.5H199.906V50.5ZM199.906 42.0312V38.0312H195.906V42.0312H199.906ZM210.678 21.8827L199.584 57.8202L207.228 60.1798L218.322 24.2423L210.678 21.8827ZM203.406 55H191.625V63H203.406V55ZM195.38 60.3796L212.098 14.8796L204.589 12.1204L187.87 57.6204L195.38 60.3796ZM208.344 17.5H215.812V9.5H208.344V17.5ZM211.85 12.9561L210.537 22.5186L218.463 23.6064L219.775 14.0439L211.85 12.9561ZM227.509 57.8171L216.384 21.8796L208.741 24.2454L219.866 60.1829L227.509 57.8171ZM216.518 22.4679L215.081 12.9054L207.169 14.0946L208.607 23.6571L216.518 22.4679ZM211.125 17.5H218.688V9.5H211.125V17.5ZM214.935 14.8864L231.748 60.3864L239.252 57.6136L222.44 12.1136L214.935 14.8864ZM235.5 55H223.688V63H235.5V55ZM219.25 42.0312V50.5H227.25V42.0312H219.25ZM223.25 46.5H199.906V54.5H223.25V46.5ZM203.906 50.5V42.0312H195.906V50.5H203.906ZM199.906 46.0312H223.25V38.0312H199.906V46.0312ZM261.969 45L258.202 46.3453L258.21 46.3673L258.218 46.3893L261.969 45ZM258.375 41.875L256.586 45.4527L256.629 45.474L256.672 45.4943L258.375 41.875ZM254.25 40.25L252.985 44.0447L252.992 44.0471L252.999 44.0493L254.25 40.25ZM248.469 38L246.795 41.633L246.812 41.6408L246.829 41.6485L248.469 38ZM243.5 35.0312L241.029 38.1765L241.043 38.1875L241.057 38.1984L243.5 35.0312ZM240.031 31.0312L236.532 32.9698L236.538 32.9799L236.544 32.99L240.031 31.0312ZM240.062 20.375L243.553 22.3294L243.558 22.3196L243.563 22.3097L240.062 20.375ZM243.719 16.3438L246.027 19.6104L246.036 19.6045L243.719 16.3438ZM249.281 13.7812L250.34 17.6386L250.358 17.6337L250.375 17.6288L249.281 13.7812ZM265.062 14.625L263.394 18.2603L263.412 18.2685L263.43 18.2766L265.062 14.625ZM271.062 19.5312L267.749 21.7725L267.762 21.7912L267.775 21.8098L271.062 19.5312ZM273.25 27V31H277.25V27H273.25ZM262.344 27H258.344V31H262.344V27ZM261.625 23.9688L258.082 25.8248L258.099 25.8576L258.117 25.89L261.625 23.9688ZM250.406 23.4688L253.688 25.7559L253.704 25.7331L253.719 25.71L250.406 23.4688ZM250.25 27.625L246.922 29.8438L246.97 29.9155L247.02 29.9851L250.25 27.625ZM251.906 29.1562L249.665 32.4694L249.687 32.4844L249.71 32.4991L251.906 29.1562ZM254.531 30.5312L252.956 34.2078L252.969 34.2136L252.982 34.2192L254.531 30.5312ZM258.031 31.8125L256.803 35.6194L256.816 35.6233L258.031 31.8125ZM264.469 34.4062L262.648 37.968L262.672 37.9801L262.696 37.9918L264.469 34.4062ZM269.25 37.625L266.517 40.5461L266.542 40.5688L266.566 40.5911L269.25 37.625ZM272.219 41.6875L268.555 43.2934L268.564 43.3144L268.574 43.3352L272.219 41.6875ZM272.062 52.2812L275.64 54.0701L272.062 52.2812ZM268.656 56.3125L271.02 59.5396L271.034 59.5288L271.049 59.5179L268.656 56.3125ZM249.531 58.75L248.494 62.6132L248.515 62.6188L248.536 62.6242L249.531 58.75ZM243.406 56L241.153 59.3049L241.166 59.3137L241.179 59.3224L243.406 56ZM239 51.2188L235.5 53.155L235.512 53.1772L235.525 53.1993L239 51.2188ZM237.375 44.25V40.25H233.375V44.25H237.375ZM248.375 44.25H252.375V40.25H248.375V44.25ZM250.469 49.8438L247.936 52.9396L247.964 52.9629L247.993 52.9857L250.469 49.8438ZM253 51.0312L252.03 54.9118L252.068 54.9214L252.106 54.9302L253 51.0312ZM259.812 50.7812L261.494 54.4105L261.53 54.3938L261.566 54.3763L259.812 50.7812ZM261.688 49.1562L265.127 51.1984L265.141 51.1753L265.154 51.1521L261.688 49.1562ZM266.281 46.9062C266.281 45.8076 266.12 44.6903 265.72 43.6107L258.218 46.3893C258.235 46.4347 258.281 46.5882 258.281 46.9062H266.281ZM265.736 43.6547C265.258 42.3162 264.427 41.2364 263.47 40.3854L258.155 46.3646C258.24 46.4403 258.267 46.4797 258.264 46.4753C258.263 46.4728 258.254 46.4603 258.242 46.4373C258.23 46.4142 258.215 46.3834 258.202 46.3453L265.736 43.6547ZM263.47 40.3854C262.508 39.5302 261.316 38.8384 260.078 38.2557L256.672 45.4943C257.559 45.9116 257.992 46.2198 258.155 46.3646L263.47 40.3854ZM260.164 38.2973C258.882 37.6563 257.306 37.045 255.501 36.4507L252.999 44.0493C254.611 44.58 255.785 45.052 256.586 45.4527L260.164 38.2973ZM255.515 36.4553C253.638 35.8295 251.836 35.1279 250.109 34.3515L246.829 41.6485C248.81 42.5388 250.862 43.3372 252.985 44.0447L255.515 36.4553ZM250.142 34.367C248.532 33.6253 247.139 32.7868 245.943 31.8641L241.057 38.1984C242.777 39.5257 244.697 40.6664 246.795 41.633L250.142 34.367ZM245.971 31.886C244.9 31.0442 244.1 30.1064 243.519 29.0725L236.544 32.99C237.671 34.9978 239.183 36.7267 241.029 38.1765L245.971 31.886ZM243.53 29.0927C243.053 28.2323 242.75 27.128 242.75 25.6562H234.75C234.75 28.2678 235.301 30.7468 236.532 32.9698L243.53 29.0927ZM242.75 25.6562C242.75 24.3166 243.043 23.24 243.553 22.3294L236.572 18.4206C235.332 20.635 234.75 23.0792 234.75 25.6562H242.75ZM243.563 22.3097C244.13 21.285 244.928 20.3868 246.027 19.6104L241.41 13.0771C239.384 14.509 237.745 16.2983 236.562 18.4403L243.563 22.3097ZM246.036 19.6045C247.19 18.7842 248.606 18.1146 250.34 17.6386L248.222 9.92395C245.706 10.6146 243.414 11.6533 241.402 13.083L246.036 19.6045ZM250.375 17.6288C252.098 17.1388 254.048 16.875 256.25 16.875V8.875C253.41 8.875 250.714 9.21532 248.187 9.93373L250.375 17.6288ZM256.25 16.875C259.116 16.875 261.466 17.3756 263.394 18.2603L266.731 10.9897C263.575 9.54107 260.05 8.875 256.25 8.875V16.875ZM263.43 18.2766C265.378 19.1477 266.769 20.3225 267.749 21.7725L274.376 17.29C272.481 14.49 269.872 12.3939 266.695 10.9734L263.43 18.2766ZM267.775 21.8098C268.713 23.1639 269.25 24.8352 269.25 27H277.25C277.25 23.4148 276.328 20.1069 274.35 17.2527L267.775 21.8098ZM273.25 23H262.344V31H273.25V23ZM266.344 27C266.344 25.2834 265.98 23.594 265.133 22.0475L258.117 25.89C258.228 26.0935 258.344 26.4249 258.344 27H266.344ZM265.168 22.1127C264.308 20.4712 263.004 19.225 261.414 18.3768L257.649 25.4357C257.934 25.5875 258.025 25.7163 258.082 25.8248L265.168 22.1127ZM261.414 18.3768C259.736 17.4821 257.863 17.1562 256 17.1562V25.1562C256.97 25.1562 257.451 25.3304 257.649 25.4357L261.414 18.3768ZM256 17.1562C254.246 17.1562 252.498 17.4187 250.907 18.126L254.156 25.4365C254.439 25.3105 255.004 25.1562 256 25.1562V17.1562ZM250.907 18.126C249.423 18.7855 248.069 19.7851 247.093 21.2275L253.719 25.71C253.72 25.709 253.723 25.7045 253.731 25.6958C253.739 25.687 253.756 25.6707 253.784 25.6481C253.842 25.6027 253.955 25.5257 254.156 25.4365L250.907 18.126ZM247.125 21.1816C246.181 22.5361 245.688 24.0939 245.688 25.75H253.688C253.688 25.7339 253.689 25.7291 253.688 25.7333C253.688 25.7351 253.687 25.7384 253.686 25.7427C253.685 25.747 253.684 25.7518 253.682 25.7567C253.681 25.7616 253.679 25.766 253.678 25.7697C253.676 25.7734 253.675 25.7757 253.675 25.7766C253.674 25.7787 253.677 25.7718 253.688 25.7559L247.125 21.1816ZM245.688 25.75C245.688 27.213 246.101 28.6125 246.922 29.8438L253.578 25.4062C253.602 25.4426 253.635 25.5045 253.659 25.585C253.683 25.6649 253.688 25.7254 253.688 25.75H245.688ZM247.02 29.9851C247.751 30.9854 248.675 31.7995 249.665 32.4694L254.147 25.8431C253.721 25.5546 253.54 25.3479 253.48 25.2649L247.02 29.9851ZM249.71 32.4991C250.68 33.1369 251.774 33.7013 252.956 34.2078L256.107 26.8547C255.247 26.4862 254.591 26.1339 254.103 25.8134L249.71 32.4991ZM252.982 34.2192C254.148 34.7086 255.424 35.1743 256.803 35.6193L259.259 28.0057C258.055 27.6173 256.998 27.2289 256.08 26.8433L252.982 34.2192ZM256.816 35.6233C259.065 36.3408 261.002 37.1268 262.648 37.968L266.289 30.8445C264.185 29.7691 261.831 28.8259 259.247 28.0017L256.816 35.6233ZM262.696 37.9918C264.307 38.7887 265.561 39.6512 266.517 40.5461L271.983 34.7039C270.356 33.1821 268.422 31.8988 266.242 30.8207L262.696 37.9918ZM266.566 40.5911C267.488 41.4249 268.13 42.3237 268.555 43.2934L275.882 40.0816C274.974 38.0096 273.637 36.2001 271.934 34.6589L266.566 40.5911ZM268.574 43.3352C268.995 44.2668 269.25 45.4113 269.25 46.8438H277.25C277.25 44.4429 276.817 42.1499 275.864 40.0398L268.574 43.3352ZM269.25 46.8438C269.25 48.3598 268.959 49.5439 268.485 50.4924L275.64 54.0701C276.749 51.8519 277.25 49.411 277.25 46.8438H269.25ZM268.485 50.4924C267.984 51.4935 267.265 52.3598 266.263 53.1071L271.049 59.5179C273.006 58.0569 274.557 56.2357 275.64 54.0701L268.485 50.4924ZM266.293 53.0854C265.268 53.836 263.959 54.4674 262.291 54.9222L264.396 62.6403C266.854 61.9701 269.086 60.9557 271.02 59.5396L266.293 53.0854ZM262.291 54.9222C260.629 55.3755 258.689 55.625 256.438 55.625V63.625C259.27 63.625 261.933 63.312 264.396 62.6403L262.291 54.9222ZM256.438 55.625C254.441 55.625 252.474 55.376 250.526 54.8758L248.536 62.6242C251.13 63.2907 253.767 63.625 256.438 63.625V55.625ZM250.569 54.8868C248.719 54.3901 247.083 53.6492 245.634 52.6776L241.179 59.3224C243.396 60.8091 245.844 61.9016 248.494 62.6132L250.569 54.8868ZM245.66 52.6951C244.332 51.7896 243.28 50.6498 242.475 49.2382L235.525 53.1993C236.929 55.6627 238.814 57.7104 241.153 59.3049L245.66 52.6951ZM242.5 49.2825C241.805 48.0252 241.375 46.3958 241.375 44.25H233.375C233.375 47.4792 234.029 50.4956 235.5 53.155L242.5 49.2825ZM237.375 48.25H248.375V40.25H237.375V48.25ZM244.375 44.25C244.375 45.9117 244.592 47.5581 245.175 49.0666L252.637 46.1834C252.512 45.8586 252.375 45.255 252.375 44.25H244.375ZM245.175 49.0666C245.752 50.5588 246.657 51.8933 247.936 52.9396L253.002 46.7479C252.906 46.6692 252.769 46.5245 252.637 46.1834L245.175 49.0666ZM247.993 52.9857C249.197 53.9338 250.578 54.5488 252.03 54.9118L253.97 47.1507C253.422 47.0137 253.116 46.837 252.944 46.7018L247.993 52.9857ZM252.106 54.9302C253.464 55.2412 254.919 55.375 256.438 55.375V47.375C255.373 47.375 254.536 47.2797 253.894 47.1323L252.106 54.9302ZM256.438 55.375C258.158 55.375 259.922 55.1393 261.494 54.4105L258.131 47.152C257.995 47.2148 257.509 47.375 256.438 47.375V55.375ZM261.566 54.3763C262.962 53.6953 264.251 52.6738 265.127 51.1984L258.248 47.1141C258.283 47.0549 258.312 47.0309 258.302 47.0397C258.288 47.0521 258.219 47.108 258.059 47.1862L261.566 54.3763ZM265.154 51.1521C265.908 49.8423 266.281 48.4015 266.281 46.9062H258.281C258.281 47.036 258.259 47.0952 258.221 47.1604L265.154 51.1521Z" fill="#020202" mask="url(#path-2-outside-1_0_1)"/>
</g>
<defs>
<filter id="filter0_i_0_1" x="2.1875" y="12.875" width="271.062" height="50.75" filterUnits="userSpaceOnUse" color-interpolation-filters="sRGB">
<feFlood flood-opacity="0" result="BackgroundImageFix"/>
<feBlend mode="normal" in="SourceGraphic" in2="BackgroundImageFix" result="shape"/>
<feColorMatrix in="SourceAlpha" type="matrix" values="0 0 0 0 0 0 0 0 0 0 0 0 0 0 0 0 0 0 127 0" result="hardAlpha"/>
<feOffset dy="4"/>
<feGaussianBlur stdDeviation="2"/>
<feComposite in2="hardAlpha" operator="arithmetic" k2="-1" k3="1"/>
<feColorMatrix type="matrix" values="0 0 0 0 0 0 0 0 0 0 0 0 0 0 0 0 0 0 0.25 0"/>
<feBlend mode="normal" in2="shape" result="effect1_innerShadow_0_1"/>
</filter>
<clipPath id="clip0_0_1">
<rect width="1440" height="1890" fill="white" transform="translate(-583 -1244)"/>
</clipPath>
</defs>
</svg>
