<svg width="410" height="75" viewBox="0 0 410 75" fill="none" xmlns="http://www.w3.org/2000/svg">
<rect width="410" height="75" fill="#E5E5E5"/>
<g clip-path="url(#clip0_0_1)">
<rect width="1440" height="1890" transform="translate(-504 -674)" fill="#EFEFEF"/>
<mask id="path-1-outside-1_0_1" maskUnits="userSpaceOnUse" x="14" y="8" width="395" height="56" fill="black">
<rect fill="white" x="14" y="8" width="395" height="56"/>
<path d="M45.2812 43.5938H56.2188C56.0729 46.7604 55.2188 49.5521 53.6562 51.9688C52.0938 54.3854 49.9271 56.2708 47.1562 57.625C44.4062 58.9583 41.1562 59.625 37.4062 59.625C34.3646 59.625 31.6458 59.1146 29.25 58.0938C26.875 57.0729 24.8542 55.6042 23.1875 53.6875C21.5417 51.7708 20.2812 49.4479 19.4062 46.7188C18.5521 43.9896 18.125 40.9167 18.125 37.5V35.0312C18.125 31.6146 18.5729 28.5417 19.4688 25.8125C20.3854 23.0625 21.6771 20.7292 23.3438 18.8125C25.0312 16.875 27.0521 15.3958 29.4062 14.375C31.7604 13.3542 34.375 12.8438 37.25 12.8438C41.2083 12.8438 44.5521 13.5521 47.2812 14.9688C50.0104 16.3854 52.125 18.3333 53.625 20.8125C55.125 23.2708 56.0104 26.0729 56.2812 29.2188H45.3438C45.3021 27.5104 45.0104 26.0833 44.4688 24.9375C43.9271 23.7708 43.0729 22.8958 41.9062 22.3125C40.7396 21.7292 39.1875 21.4375 37.25 21.4375C35.8958 21.4375 34.7188 21.6875 33.7188 22.1875C32.7188 22.6875 31.8854 23.4792 31.2188 24.5625C30.5521 25.6458 30.0521 27.0521 29.7188 28.7812C29.4062 30.4896 29.25 32.5521 29.25 34.9688V37.5C29.25 39.9167 29.3958 41.9792 29.6875 43.6875C29.9792 45.3958 30.4479 46.7917 31.0938 47.875C31.7396 48.9583 32.5729 49.7604 33.5938 50.2812C34.6354 50.7812 35.9062 51.0312 37.4062 51.0312C39.0729 51.0312 40.4792 50.7708 41.625 50.25C42.7708 49.7083 43.6562 48.8958 44.2812 47.8125C44.9062 46.7083 45.2396 45.3021 45.2812 43.5938ZM80.6875 23.0625L69.5938 59H57.8125L74.5312 13.5H82L80.6875 23.0625ZM89.875 59L78.75 23.0625L77.3125 13.5H84.875L101.688 59H89.875ZM89.4375 42.0312V50.5H66.0938V42.0312H89.4375ZM123.312 13.5V59H112.344V13.5H123.312ZM137 13.5V21.9688H98.9688V13.5H137ZM172.969 50.5625V59H148.719V50.5625H172.969ZM152.625 13.5V59H141.656V13.5H152.625ZM169.844 31.5625V39.7188H148.719V31.5625H169.844ZM173.062 13.5V21.9688H148.719V13.5H173.062ZM214.688 34.6875V53.375C213.917 54.2292 212.729 55.1458 211.125 56.125C209.542 57.0833 207.542 57.9062 205.125 58.5938C202.708 59.2812 199.865 59.625 196.594 59.625C193.573 59.625 190.833 59.1458 188.375 58.1875C185.917 57.2083 183.802 55.7812 182.031 53.9062C180.281 52.0104 178.927 49.6979 177.969 46.9688C177.031 44.2188 176.562 41.0729 176.562 37.5312V35C176.562 31.4583 177.042 28.3125 178 25.5625C178.958 22.8125 180.302 20.5 182.031 18.625C183.781 16.7292 185.833 15.2917 188.188 14.3125C190.562 13.3333 193.167 12.8438 196 12.8438C200.188 12.8438 203.594 13.5104 206.219 14.8438C208.844 16.1562 210.833 17.9792 212.188 20.3125C213.542 22.625 214.365 25.3021 214.656 28.3438H204.125C203.917 26.8438 203.521 25.5729 202.938 24.5312C202.375 23.4688 201.562 22.6667 200.5 22.125C199.438 21.5625 198.062 21.2812 196.375 21.2812C195.062 21.2812 193.865 21.5625 192.781 22.125C191.719 22.6875 190.812 23.5417 190.062 24.6875C189.312 25.8125 188.729 27.2292 188.312 28.9375C187.917 30.6458 187.719 32.6458 187.719 34.9375V37.5312C187.719 39.8021 187.906 41.7917 188.281 43.5C188.677 45.2083 189.26 46.6354 190.031 47.7812C190.823 48.9062 191.823 49.7604 193.031 50.3438C194.26 50.9062 195.708 51.1875 197.375 51.1875C198.542 51.1875 199.542 51.0938 200.375 50.9062C201.208 50.6979 201.896 50.4479 202.438 50.1562C203 49.8438 203.427 49.5521 203.719 49.2812V42.2188H196.094V34.6875H214.688ZM259.594 35.3438V37.1875C259.594 40.6667 259.104 43.7917 258.125 46.5625C257.167 49.3125 255.802 51.6667 254.031 53.625C252.26 55.5625 250.167 57.0521 247.75 58.0938C245.333 59.1146 242.667 59.625 239.75 59.625C236.812 59.625 234.125 59.1146 231.688 58.0938C229.271 57.0521 227.167 55.5625 225.375 53.625C223.604 51.6667 222.229 49.3125 221.25 46.5625C220.292 43.7917 219.812 40.6667 219.812 37.1875V35.3438C219.812 31.8646 220.292 28.7396 221.25 25.9688C222.229 23.1979 223.594 20.8438 225.344 18.9062C227.115 16.9479 229.208 15.4583 231.625 14.4375C234.062 13.3958 236.75 12.875 239.688 12.875C242.604 12.875 245.271 13.3958 247.688 14.4375C250.125 15.4583 252.229 16.9479 254 18.9062C255.771 20.8438 257.146 23.1979 258.125 25.9688C259.104 28.7396 259.594 31.8646 259.594 35.3438ZM248.469 37.1875V35.2812C248.469 33.0312 248.271 31.0521 247.875 29.3438C247.5 27.6146 246.938 26.1667 246.188 25C245.438 23.8333 244.51 22.9583 243.406 22.375C242.323 21.7708 241.083 21.4688 239.688 21.4688C238.229 21.4688 236.958 21.7708 235.875 22.375C234.792 22.9583 233.885 23.8333 233.156 25C232.427 26.1667 231.875 27.6146 231.5 29.3438C231.146 31.0521 230.969 33.0312 230.969 35.2812V37.1875C230.969 39.4167 231.146 41.3958 231.5 43.125C231.875 44.8333 232.427 46.2812 233.156 47.4688C233.906 48.6562 234.823 49.5521 235.906 50.1562C237.01 50.7604 238.292 51.0625 239.75 51.0625C241.146 51.0625 242.385 50.7604 243.469 50.1562C244.552 49.5521 245.458 48.6562 246.188 47.4688C246.938 46.2812 247.5 44.8333 247.875 43.125C248.271 41.3958 248.469 39.4167 248.469 37.1875ZM265.281 13.5H283.188C286.688 13.5 289.729 14.0208 292.312 15.0625C294.896 16.1042 296.885 17.6458 298.281 19.6875C299.698 21.7292 300.406 24.25 300.406 27.25C300.406 29.8542 300 32.0312 299.188 33.7812C298.375 35.5312 297.24 36.9792 295.781 38.125C294.344 39.25 292.667 40.1771 290.75 40.9062L287.156 42.9375H272.125L272.062 34.4688H283.188C284.583 34.4688 285.74 34.2188 286.656 33.7188C287.573 33.2188 288.26 32.5104 288.719 31.5938C289.198 30.6562 289.438 29.5417 289.438 28.25C289.438 26.9375 289.198 25.8125 288.719 24.875C288.24 23.9375 287.531 23.2188 286.594 22.7188C285.677 22.2188 284.542 21.9688 283.188 21.9688H276.25V59H265.281V13.5ZM290.188 59L280.125 38.875L291.75 38.8125L301.938 58.5312V59H290.188ZM318.688 13.5V59H307.75V13.5H318.688ZM346.25 23.0625L335.156 59H323.375L340.094 13.5H347.562L346.25 23.0625ZM355.438 59L344.312 23.0625L342.875 13.5H350.438L367.25 59H355.438ZM355 42.0312V50.5H331.656V42.0312H355ZM394.031 46.9062C394.031 46.1979 393.927 45.5625 393.719 45C393.51 44.4167 393.125 43.875 392.562 43.375C392 42.875 391.188 42.375 390.125 41.875C389.083 41.3542 387.708 40.8125 386 40.25C384 39.5833 382.073 38.8333 380.219 38C378.365 37.1458 376.708 36.1562 375.25 35.0312C373.792 33.8854 372.635 32.5521 371.781 31.0312C370.927 29.4896 370.5 27.6979 370.5 25.6562C370.5 23.6979 370.938 21.9375 371.812 20.375C372.688 18.7917 373.906 17.4479 375.469 16.3438C377.052 15.2188 378.906 14.3646 381.031 13.7812C383.156 13.1771 385.479 12.875 388 12.875C391.333 12.875 394.271 13.4583 396.812 14.625C399.375 15.7708 401.375 17.4062 402.812 19.5312C404.271 21.6354 405 24.125 405 27H394.094C394.094 25.8542 393.854 24.8438 393.375 23.9688C392.917 23.0938 392.219 22.4062 391.281 21.9062C390.344 21.4062 389.167 21.1562 387.75 21.1562C386.375 21.1562 385.219 21.3646 384.281 21.7812C383.344 22.1979 382.635 22.7604 382.156 23.4688C381.677 24.1562 381.438 24.9167 381.438 25.75C381.438 26.4375 381.625 27.0625 382 27.625C382.396 28.1667 382.948 28.6771 383.656 29.1562C384.385 29.6354 385.26 30.0938 386.281 30.5312C387.323 30.9688 388.49 31.3958 389.781 31.8125C392.198 32.5833 394.344 33.4479 396.219 34.4062C398.115 35.3438 399.708 36.4167 401 37.625C402.312 38.8125 403.302 40.1667 403.969 41.6875C404.656 43.2083 405 44.9271 405 46.8438C405 48.8854 404.604 50.6979 403.812 52.2812C403.021 53.8646 401.885 55.2083 400.406 56.3125C398.927 57.3958 397.156 58.2188 395.094 58.7812C393.031 59.3438 390.729 59.625 388.188 59.625C385.854 59.625 383.552 59.3333 381.281 58.75C379.031 58.1458 376.99 57.2292 375.156 56C373.323 54.75 371.854 53.1562 370.75 51.2188C369.667 49.2604 369.125 46.9375 369.125 44.25H380.125C380.125 45.5833 380.302 46.7083 380.656 47.625C381.01 48.5417 381.531 49.2812 382.219 49.8438C382.906 50.3854 383.75 50.7812 384.75 51.0312C385.75 51.2604 386.896 51.375 388.188 51.375C389.583 51.375 390.708 51.1771 391.562 50.7812C392.417 50.3646 393.042 49.8229 393.438 49.1562C393.833 48.4688 394.031 47.7188 394.031 46.9062Z"/>
</mask>
<g filter="url(#filter0_i_0_1)">
<path d="M45.2812 43.5938H56.2188C56.0729 46.7604 55.2188 49.5521 53.6562 51.9688C52.0938 54.3854 49.9271 56.2708 47.1562 57.625C44.4062 58.9583 41.1562 59.625 37.4062 59.625C34.3646 59.625 31.6458 59.1146 29.25 58.0938C26.875 57.0729 24.8542 55.6042 23.1875 53.6875C21.5417 51.7708 20.2812 49.4479 19.4062 46.7188C18.5521 43.9896 18.125 40.9167 18.125 37.5V35.0312C18.125 31.6146 18.5729 28.5417 19.4688 25.8125C20.3854 23.0625 21.6771 20.7292 23.3438 18.8125C25.0312 16.875 27.0521 15.3958 29.4062 14.375C31.7604 13.3542 34.375 12.8438 37.25 12.8438C41.2083 12.8438 44.5521 13.5521 47.2812 14.9688C50.0104 16.3854 52.125 18.3333 53.625 20.8125C55.125 23.2708 56.0104 26.0729 56.2812 29.2188H45.3438C45.3021 27.5104 45.0104 26.0833 44.4688 24.9375C43.9271 23.7708 43.0729 22.8958 41.9062 22.3125C40.7396 21.7292 39.1875 21.4375 37.25 21.4375C35.8958 21.4375 34.7188 21.6875 33.7188 22.1875C32.7188 22.6875 31.8854 23.4792 31.2188 24.5625C30.5521 25.6458 30.0521 27.0521 29.7188 28.7812C29.4062 30.4896 29.25 32.5521 29.25 34.9688V37.5C29.25 39.9167 29.3958 41.9792 29.6875 43.6875C29.9792 45.3958 30.4479 46.7917 31.0938 47.875C31.7396 48.9583 32.5729 49.7604 33.5938 50.2812C34.6354 50.7812 35.9062 51.0312 37.4062 51.0312C39.0729 51.0312 40.4792 50.7708 41.625 50.25C42.7708 49.7083 43.6562 48.8958 44.2812 47.8125C44.9062 46.7083 45.2396 45.3021 45.2812 43.5938ZM80.6875 23.0625L69.5938 59H57.8125L74.5312 13.5H82L80.6875 23.0625ZM89.875 59L78.75 23.0625L77.3125 13.5H84.875L101.688 59H89.875ZM89.4375 42.0312V50.5H66.0938V42.0312H89.4375ZM123.312 13.5V59H112.344V13.5H123.312ZM137 13.5V21.9688H98.9688V13.5H137ZM172.969 50.5625V59H148.719V50.5625H172.969ZM152.625 13.5V59H141.656V13.5H152.625ZM169.844 31.5625V39.7188H148.719V31.5625H169.844ZM173.062 13.5V21.9688H148.719V13.5H173.062ZM214.688 34.6875V53.375C213.917 54.2292 212.729 55.1458 211.125 56.125C209.542 57.0833 207.542 57.9062 205.125 58.5938C202.708 59.2812 199.865 59.625 196.594 59.625C193.573 59.625 190.833 59.1458 188.375 58.1875C185.917 57.2083 183.802 55.7812 182.031 53.9062C180.281 52.0104 178.927 49.6979 177.969 46.9688C177.031 44.2188 176.562 41.0729 176.562 37.5312V35C176.562 31.4583 177.042 28.3125 178 25.5625C178.958 22.8125 180.302 20.5 182.031 18.625C183.781 16.7292 185.833 15.2917 188.188 14.3125C190.562 13.3333 193.167 12.8438 196 12.8438C200.188 12.8438 203.594 13.5104 206.219 14.8438C208.844 16.1562 210.833 17.9792 212.188 20.3125C213.542 22.625 214.365 25.3021 214.656 28.3438H204.125C203.917 26.8438 203.521 25.5729 202.938 24.5312C202.375 23.4688 201.562 22.6667 200.5 22.125C199.438 21.5625 198.062 21.2812 196.375 21.2812C195.062 21.2812 193.865 21.5625 192.781 22.125C191.719 22.6875 190.812 23.5417 190.062 24.6875C189.312 25.8125 188.729 27.2292 188.312 28.9375C187.917 30.6458 187.719 32.6458 187.719 34.9375V37.5312C187.719 39.8021 187.906 41.7917 188.281 43.5C188.677 45.2083 189.26 46.6354 190.031 47.7812C190.823 48.9062 191.823 49.7604 193.031 50.3438C194.26 50.9062 195.708 51.1875 197.375 51.1875C198.542 51.1875 199.542 51.0938 200.375 50.9062C201.208 50.6979 201.896 50.4479 202.438 50.1562C203 49.8438 203.427 49.5521 203.719 49.2812V42.2188H196.094V34.6875H214.688ZM259.594 35.3438V37.1875C259.594 40.6667 259.104 43.7917 258.125 46.5625C257.167 49.3125 255.802 51.6667 254.031 53.625C252.26 55.5625 250.167 57.0521 247.75 58.0938C245.333 59.1146 242.667 59.625 239.75 59.625C236.812 59.625 234.125 59.1146 231.688 58.0938C229.271 57.0521 227.167 55.5625 225.375 53.625C223.604 51.6667 222.229 49.3125 221.25 46.5625C220.292 43.7917 219.812 40.6667 219.812 37.1875V35.3438C219.812 31.8646 220.292 28.7396 221.25 25.9688C222.229 23.1979 223.594 20.8438 225.344 18.9062C227.115 16.9479 229.208 15.4583 231.625 14.4375C234.062 13.3958 236.75 12.875 239.688 12.875C242.604 12.875 245.271 13.3958 247.688 14.4375C250.125 15.4583 252.229 16.9479 254 18.9062C255.771 20.8438 257.146 23.1979 258.125 25.9688C259.104 28.7396 259.594 31.8646 259.594 35.3438ZM248.469 37.1875V35.2812C248.469 33.0312 248.271 31.0521 247.875 29.3438C247.5 27.6146 246.938 26.1667 246.188 25C245.438 23.8333 244.51 22.9583 243.406 22.375C242.323 21.7708 241.083 21.4688 239.688 21.4688C238.229 21.4688 236.958 21.7708 235.875 22.375C234.792 22.9583 233.885 23.8333 233.156 25C232.427 26.1667 231.875 27.6146 231.5 29.3438C231.146 31.0521 230.969 33.0312 230.969 35.2812V37.1875C230.969 39.4167 231.146 41.3958 231.5 43.125C231.875 44.8333 232.427 46.2812 233.156 47.4688C233.906 48.6562 234.823 49.5521 235.906 50.1562C237.01 50.7604 238.292 51.0625 239.75 51.0625C241.146 51.0625 242.385 50.7604 243.469 50.1562C244.552 49.5521 245.458 48.6562 246.188 47.4688C246.938 46.2812 247.5 44.8333 247.875 43.125C248.271 41.3958 248.469 39.4167 248.469 37.1875ZM265.281 13.5H283.188C286.688 13.5 289.729 14.0208 292.312 15.0625C294.896 16.1042 296.885 17.6458 298.281 19.6875C299.698 21.7292 300.406 24.25 300.406 27.25C300.406 29.8542 300 32.0312 299.188 33.7812C298.375 35.5312 297.24 36.9792 295.781 38.125C294.344 39.25 292.667 40.1771 290.75 40.9062L287.156 42.9375H272.125L272.062 34.4688H283.188C284.583 34.4688 285.74 34.2188 286.656 33.7188C287.573 33.2188 288.26 32.5104 288.719 31.5938C289.198 30.6562 289.438 29.5417 289.438 28.25C289.438 26.9375 289.198 25.8125 288.719 24.875C288.24 23.9375 287.531 23.2188 286.594 22.7188C285.677 22.2188 284.542 21.9688 283.188 21.9688H276.25V59H265.281V13.5ZM290.188 59L280.125 38.875L291.75 38.8125L301.938 58.5312V59H290.188ZM318.688 13.5V59H307.75V13.5H318.688ZM346.25 23.0625L335.156 59H323.375L340.094 13.5H347.562L346.25 23.0625ZM355.438 59L344.312 23.0625L342.875 13.5H350.438L367.25 59H355.438ZM355 42.0312V50.5H331.656V42.0312H355ZM394.031 46.9062C394.031 46.1979 393.927 45.5625 393.719 45C393.51 44.4167 393.125 43.875 392.562 43.375C392 42.875 391.188 42.375 390.125 41.875C389.083 41.3542 387.708 40.8125 386 40.25C384 39.5833 382.073 38.8333 380.219 38C378.365 37.1458 376.708 36.1562 375.25 35.0312C373.792 33.8854 372.635 32.5521 371.781 31.0312C370.927 29.4896 370.5 27.6979 370.5 25.6562C370.5 23.6979 370.938 21.9375 371.812 20.375C372.688 18.7917 373.906 17.4479 375.469 16.3438C377.052 15.2188 378.906 14.3646 381.031 13.7812C383.156 13.1771 385.479 12.875 388 12.875C391.333 12.875 394.271 13.4583 396.812 14.625C399.375 15.7708 401.375 17.4062 402.812 19.5312C404.271 21.6354 405 24.125 405 27H394.094C394.094 25.8542 393.854 24.8438 393.375 23.9688C392.917 23.0938 392.219 22.4062 391.281 21.9062C390.344 21.4062 389.167 21.1562 387.75 21.1562C386.375 21.1562 385.219 21.3646 384.281 21.7812C383.344 22.1979 382.635 22.7604 382.156 23.4688C381.677 24.1562 381.438 24.9167 381.438 25.75C381.438 26.4375 381.625 27.0625 382 27.625C382.396 28.1667 382.948 28.6771 383.656 29.1562C384.385 29.6354 385.26 30.0938 386.281 30.5312C387.323 30.9688 388.49 31.3958 389.781 31.8125C392.198 32.5833 394.344 33.4479 396.219 34.4062C398.115 35.3438 399.708 36.4167 401 37.625C402.312 38.8125 403.302 40.1667 403.969 41.6875C404.656 43.2083 405 44.9271 405 46.8438C405 48.8854 404.604 50.6979 403.812 52.2812C403.021 53.8646 401.885 55.2083 400.406 56.3125C398.927 57.3958 397.156 58.2188 395.094 58.7812C393.031 59.3438 390.729 59.625 388.188 59.625C385.854 59.625 383.552 59.3333 381.281 58.75C379.031 58.1458 376.99 57.2292 375.156 56C373.323 54.75 371.854 53.1562 370.75 51.2188C369.667 49.2604 369.125 46.9375 369.125 44.25H380.125C380.125 45.5833 380.302 46.7083 380.656 47.625C381.01 48.5417 381.531 49.2812 382.219 49.8438C382.906 50.3854 383.75 50.7812 384.75 51.0312C385.75 51.2604 386.896 51.375 388.188 51.375C389.583 51.375 390.708 51.1771 391.562 50.7812C392.417 50.3646 393.042 49.8229 393.438 49.1562C393.833 48.4688 394.031 47.7188 394.031 46.9062Z" fill="white"/>
</g>
<path d="M45.2812 43.5938V39.5938H41.3776L41.2824 43.4962L45.2812 43.5938ZM56.2188 43.5938L60.2145 43.7778L60.4072 39.5938H56.2188V43.5938ZM47.1562 57.625L48.9014 61.2243L48.9126 61.2188L47.1562 57.625ZM29.25 58.0938L27.6704 61.7687L27.6821 61.7736L29.25 58.0938ZM23.1875 53.6875L20.1528 56.2934L20.1609 56.3028L20.1691 56.3122L23.1875 53.6875ZM19.4062 46.7188L15.5888 47.9135L15.593 47.9268L15.5972 47.94L19.4062 46.7188ZM19.4688 25.8125L15.674 24.5476L15.6711 24.5563L15.6683 24.565L19.4688 25.8125ZM23.3438 18.8125L20.3274 16.1854L20.3253 16.1878L23.3438 18.8125ZM53.625 20.8125L50.2027 22.8832L50.2065 22.8896L50.2104 22.896L53.625 20.8125ZM56.2812 29.2188V33.2188H60.6404L60.2665 28.8756L56.2812 29.2188ZM45.3438 29.2188L41.3449 29.3163L41.4401 33.2188H45.3438V29.2188ZM44.4688 24.9375L40.8407 26.6219L40.8465 26.6345L40.8525 26.647L44.4688 24.9375ZM29.7188 28.7812L25.7911 28.0241L25.7875 28.0428L25.784 28.0615L29.7188 28.7812ZM33.5938 50.2812L31.7759 53.8443L31.8191 53.8663L31.8628 53.8873L33.5938 50.2812ZM41.625 50.25L43.2802 53.8915L43.3075 53.8791L43.3345 53.8663L41.625 50.25ZM44.2812 47.8125L47.746 49.8114L47.7542 49.7972L47.7623 49.7829L44.2812 47.8125ZM45.2812 47.5938H56.2188V39.5938H45.2812V47.5938ZM52.223 43.4097C52.1063 45.9429 51.437 48.034 50.2972 49.7969L57.0153 54.1406C59.0005 51.0702 60.0395 47.5779 60.2145 43.7778L52.223 43.4097ZM50.2972 49.7969C49.1581 51.5588 47.5658 52.9727 45.3999 54.0312L48.9126 61.2188C52.2884 59.569 55.0294 57.2121 57.0153 54.1406L50.2972 49.7969ZM45.4112 54.0257C43.3145 55.0423 40.6863 55.625 37.4062 55.625V63.625C41.6262 63.625 45.498 62.8743 48.9013 61.2243L45.4112 54.0257ZM37.4062 55.625C34.814 55.625 32.6419 55.191 30.8179 54.4139L27.6821 61.7736C30.6498 63.0381 33.9151 63.625 37.4062 63.625V55.625ZM30.8296 54.4188C28.9969 53.6311 27.4708 52.5174 26.2059 51.0628L20.1691 56.3122C22.2375 58.6909 24.7531 60.5147 27.6704 61.7687L30.8296 54.4188ZM26.2222 51.0816C24.9681 49.6211 23.949 47.7862 23.2153 45.4975L15.5972 47.94C16.6135 51.1096 18.1152 53.9205 20.1528 56.2934L26.2222 51.0816ZM23.2237 45.524C22.5114 43.2483 22.125 40.5879 22.125 37.5H14.125C14.125 41.2455 14.5928 44.7309 15.5888 47.9135L23.2237 45.524ZM22.125 37.5V35.0312H14.125V37.5H22.125ZM22.125 35.0312C22.125 31.9604 22.5279 29.3186 23.2692 27.06L15.6683 24.565C14.618 27.7648 14.125 31.2688 14.125 35.0312H22.125ZM23.2635 27.0774C24.0369 24.7572 25.0868 22.9039 26.3622 21.4372L20.3253 16.1878C18.2674 18.5544 16.734 21.3678 15.674 24.5476L23.2635 27.0774ZM26.3601 21.4396C27.6567 19.9509 29.1909 18.8283 30.9976 18.0448L27.8149 10.7052C24.9133 11.9634 22.4058 13.7991 20.3274 16.1854L26.3601 21.4396ZM30.9976 18.0448C32.7923 17.2666 34.8564 16.8438 37.25 16.8438V8.84375C33.8936 8.84375 30.7286 9.44173 27.8149 10.7052L30.9976 18.0448ZM37.25 16.8438C40.7457 16.8438 43.4185 17.4704 45.4384 18.5189L49.1241 11.4186C45.6857 9.63372 41.671 8.84375 37.25 8.84375V16.8438ZM45.4384 18.5189C47.5567 19.6185 49.1068 21.0719 50.2027 22.8832L57.0473 18.7418C55.1432 15.5948 52.4641 13.1523 49.1241 11.4186L45.4384 18.5189ZM50.2104 22.896C51.358 24.7767 52.073 26.9721 52.296 29.5619L60.2665 28.8756C59.9478 25.1738 58.892 21.765 57.0396 18.729L50.2104 22.896ZM56.2812 25.2188H45.3438V33.2188H56.2812V25.2188ZM49.3426 29.1212C49.2918 27.0385 48.933 25.0218 48.085 23.228L40.8525 26.647C41.0878 27.1449 41.3124 27.9824 41.3449 29.3163L49.3426 29.1212ZM48.0968 23.2531C47.1681 21.2529 45.659 19.7167 43.6951 18.7348L40.1174 25.8902C40.4868 26.0749 40.686 26.2888 40.8407 26.6219L48.0968 23.2531ZM43.6951 18.7348C41.7693 17.7719 39.5315 17.4375 37.25 17.4375V25.4375C38.8435 25.4375 39.7099 25.6864 40.1174 25.8902L43.6951 18.7348ZM37.25 17.4375C35.4043 17.4375 33.5905 17.7795 31.9299 18.6098L35.5076 25.7652C35.847 25.5955 36.3874 25.4375 37.25 25.4375V17.4375ZM31.9299 18.6098C30.175 19.4873 28.8144 20.8374 27.8121 22.4661L34.6254 26.6589C34.9565 26.1209 35.2625 25.8877 35.5076 25.7652L31.9299 18.6098ZM27.8121 22.4661C26.8155 24.0857 26.1832 25.99 25.7911 28.0241L33.6464 29.5384C33.921 28.1142 34.2887 27.206 34.6254 26.6589L27.8121 22.4661ZM25.784 28.0615C25.415 30.0791 25.25 32.3967 25.25 34.9688H33.25C33.25 32.7075 33.3975 30.9001 33.6535 29.501L25.784 28.0615ZM25.25 34.9688V37.5H33.25V34.9688H25.25ZM25.25 37.5C25.25 40.0614 25.4034 42.3624 25.7446 44.3607L33.6304 43.0143C33.3883 41.596 33.25 39.7719 33.25 37.5H25.25ZM25.7446 44.3607C26.0902 46.3854 26.6847 48.2907 27.658 49.9233L34.5295 45.8267C34.2111 45.2926 33.8681 44.4063 33.6304 43.0143L25.7446 44.3607ZM27.658 49.9233C28.6495 51.5865 30.0172 52.947 31.7759 53.8443L35.4116 46.7182C35.1286 46.5738 34.8297 46.3302 34.5295 45.8267L27.658 49.9233ZM31.8628 53.8873C33.5808 54.712 35.479 55.0312 37.4062 55.0312V47.0312C36.3335 47.0312 35.6901 46.8505 35.3247 46.6752L31.8628 53.8873ZM37.4062 55.0312C39.4676 55.0312 41.475 54.712 43.2802 53.8915L39.9698 46.6085C39.4833 46.8296 38.6782 47.0312 37.4062 47.0312V55.0312ZM43.3345 53.8663C45.2059 52.9817 46.7084 51.6099 47.746 49.8114L40.8165 45.8136C40.6041 46.1817 40.3358 46.435 39.9155 46.6337L43.3345 53.8663ZM47.7623 49.7829C48.8039 47.9426 49.2277 45.8387 49.2801 43.6913L41.2824 43.4962C41.2515 44.7655 41.0086 45.474 40.8002 45.8421L47.7623 49.7829ZM80.6875 23.0625L84.5095 24.2423L84.6059 23.9301L84.6503 23.6064L80.6875 23.0625ZM69.5938 59V63H72.5452L73.4158 60.1798L69.5938 59ZM57.8125 59L54.0579 57.6204L52.0812 63H57.8125V59ZM74.5312 13.5V9.5H71.7395L70.7767 12.1204L74.5312 13.5ZM82 13.5L85.9628 14.0439L86.5865 9.5H82V13.5ZM89.875 59L86.0539 60.1829L86.926 63H89.875V59ZM78.75 23.0625L74.7944 23.6571L74.8394 23.9563L74.9289 24.2454L78.75 23.0625ZM77.3125 13.5V9.5H72.6663L73.3569 14.0946L77.3125 13.5ZM84.875 13.5L88.6271 12.1136L87.6613 9.5H84.875V13.5ZM101.688 59V63H107.43L105.44 57.6136L101.688 59ZM89.4375 42.0312H93.4375V38.0312H89.4375V42.0312ZM89.4375 50.5V54.5H93.4375V50.5H89.4375ZM66.0938 50.5H62.0938V54.5H66.0938V50.5ZM66.0938 42.0312V38.0312H62.0938V42.0312H66.0938ZM76.8655 21.8827L65.7717 57.8202L73.4158 60.1798L84.5095 24.2423L76.8655 21.8827ZM69.5938 55H57.8125V63H69.5938V55ZM61.5671 60.3796L78.2858 14.8796L70.7767 12.1204L54.0579 57.6204L61.5671 60.3796ZM74.5312 17.5H82V9.5H74.5312V17.5ZM78.0372 12.9561L76.7247 22.5186L84.6503 23.6064L85.9628 14.0439L78.0372 12.9561ZM93.6961 57.8171L82.5711 21.8796L74.9289 24.2454L86.0539 60.1829L93.6961 57.8171ZM82.7056 22.4679L81.2681 12.9054L73.3569 14.0946L74.7944 23.6571L82.7056 22.4679ZM77.3125 17.5H84.875V9.5H77.3125V17.5ZM81.1229 14.8864L97.9354 60.3864L105.44 57.6136L88.6271 12.1136L81.1229 14.8864ZM101.688 55H89.875V63H101.688V55ZM85.4375 42.0312V50.5H93.4375V42.0312H85.4375ZM89.4375 46.5H66.0938V54.5H89.4375V46.5ZM70.0938 50.5V42.0312H62.0938V50.5H70.0938ZM66.0938 46.0312H89.4375V38.0312H66.0938V46.0312ZM123.312 13.5H127.312V9.5H123.312V13.5ZM123.312 59V63H127.312V59H123.312ZM112.344 59H108.344V63H112.344V59ZM112.344 13.5V9.5H108.344V13.5H112.344ZM137 13.5H141V9.5H137V13.5ZM137 21.9688V25.9688H141V21.9688H137ZM98.9688 21.9688H94.9688V25.9688H98.9688V21.9688ZM98.9688 13.5V9.5H94.9688V13.5H98.9688ZM119.312 13.5V59H127.312V13.5H119.312ZM123.312 55H112.344V63H123.312V55ZM116.344 59V13.5H108.344V59H116.344ZM112.344 17.5H123.312V9.5H112.344V17.5ZM133 13.5V21.9688H141V13.5H133ZM137 17.9688H98.9688V25.9688H137V17.9688ZM102.969 21.9688V13.5H94.9688V21.9688H102.969ZM98.9688 17.5H137V9.5H98.9688V17.5ZM172.969 50.5625H176.969V46.5625H172.969V50.5625ZM172.969 59V63H176.969V59H172.969ZM148.719 59H144.719V63H148.719V59ZM148.719 50.5625V46.5625H144.719V50.5625H148.719ZM152.625 13.5H156.625V9.5H152.625V13.5ZM152.625 59V63H156.625V59H152.625ZM141.656 59H137.656V63H141.656V59ZM141.656 13.5V9.5H137.656V13.5H141.656ZM169.844 31.5625H173.844V27.5625H169.844V31.5625ZM169.844 39.7188V43.7188H173.844V39.7188H169.844ZM148.719 39.7188H144.719V43.7188H148.719V39.7188ZM148.719 31.5625V27.5625H144.719V31.5625H148.719ZM173.062 13.5H177.062V9.5H173.062V13.5ZM173.062 21.9688V25.9688H177.062V21.9688H173.062ZM148.719 21.9688H144.719V25.9688H148.719V21.9688ZM148.719 13.5V9.5H144.719V13.5H148.719ZM168.969 50.5625V59H176.969V50.5625H168.969ZM172.969 55H148.719V63H172.969V55ZM152.719 59V50.5625H144.719V59H152.719ZM148.719 54.5625H172.969V46.5625H148.719V54.5625ZM148.625 13.5V59H156.625V13.5H148.625ZM152.625 55H141.656V63H152.625V55ZM145.656 59V13.5H137.656V59H145.656ZM141.656 17.5H152.625V9.5H141.656V17.5ZM165.844 31.5625V39.7188H173.844V31.5625H165.844ZM169.844 35.7188H148.719V43.7188H169.844V35.7188ZM152.719 39.7188V31.5625H144.719V39.7188H152.719ZM148.719 35.5625H169.844V27.5625H148.719V35.5625ZM169.062 13.5V21.9688H177.062V13.5H169.062ZM173.062 17.9688H148.719V25.9688H173.062V17.9688ZM152.719 21.9688V13.5H144.719V21.9688H152.719ZM148.719 17.5H173.062V9.5H148.719V17.5ZM214.688 34.6875H218.688V30.6875H214.688V34.6875ZM214.688 53.375L217.657 56.0549L218.688 54.913V53.375H214.688ZM211.125 56.125L213.196 59.547L213.203 59.5431L213.209 59.5392L211.125 56.125ZM188.375 58.1875L186.895 61.9036L186.908 61.909L186.922 61.9143L188.375 58.1875ZM182.031 53.9062L179.092 56.6194L179.108 56.6361L179.123 56.6527L182.031 53.9062ZM177.969 46.9688L174.183 48.2594L174.189 48.2768L174.195 48.294L177.969 46.9688ZM182.031 18.625L179.092 15.9119L179.091 15.9132L182.031 18.625ZM188.188 14.3125L186.663 10.6144L186.651 10.6192L188.188 14.3125ZM206.219 14.8438L204.407 18.4101L204.419 18.4158L204.43 18.4215L206.219 14.8438ZM212.188 20.3125L208.728 22.3203L208.732 22.327L208.736 22.3338L212.188 20.3125ZM214.656 28.3438V32.3438H219.058L218.638 27.9619L214.656 28.3438ZM204.125 28.3438L200.163 28.894L200.642 32.3438H204.125V28.3438ZM202.938 24.5312L199.402 26.4028L199.424 26.4445L199.447 26.4857L202.938 24.5312ZM200.5 22.125L198.628 25.6602L198.656 25.6746L198.683 25.6886L200.5 22.125ZM192.781 22.125L190.938 18.575L190.924 18.5824L190.91 18.5898L192.781 22.125ZM190.062 24.6875L193.391 26.9063L193.4 26.8923L193.409 26.8781L190.062 24.6875ZM188.312 28.9375L184.426 27.9897L184.421 28.0121L184.416 28.0346L188.312 28.9375ZM188.281 43.5L184.374 44.3576L184.379 44.3803L184.384 44.4029L188.281 43.5ZM190.031 47.7812L186.712 50.014L186.736 50.0488L186.76 50.0832L190.031 47.7812ZM193.031 50.3438L191.292 53.946L191.329 53.9639L191.367 53.981L193.031 50.3438ZM200.375 50.9062L201.253 54.8087L201.299 54.7983L201.345 54.7868L200.375 50.9062ZM202.438 50.1562L204.334 53.6781L204.357 53.6657L204.38 53.6529L202.438 50.1562ZM203.719 49.2812L206.441 52.2124L207.719 51.0255V49.2812H203.719ZM203.719 42.2188H207.719V38.2188H203.719V42.2188ZM196.094 42.2188H192.094V46.2188H196.094V42.2188ZM196.094 34.6875V30.6875H192.094V34.6875H196.094ZM210.688 34.6875V53.375H218.688V34.6875H210.688ZM211.718 50.6951C211.316 51.1402 210.496 51.8226 209.041 52.7108L213.209 59.5392C214.962 58.4691 216.517 57.3182 217.657 56.0549L211.718 50.6951ZM209.054 52.703C207.862 53.4242 206.218 54.1242 204.031 54.7464L206.219 62.4411C208.866 61.6883 211.221 60.7425 213.196 59.547L209.054 52.703ZM204.031 54.7464C202.058 55.3074 199.599 55.625 196.594 55.625V63.625C200.13 63.625 203.358 63.2551 206.219 62.4411L204.031 54.7464ZM196.594 55.625C193.999 55.625 191.761 55.2143 189.828 54.4607L186.922 61.9143C189.906 63.0774 193.147 63.625 196.594 63.625V55.625ZM189.855 54.4714C187.923 53.7019 186.3 52.6003 184.939 51.1598L179.123 56.6527C181.304 58.9622 183.91 60.7148 186.895 61.9036L189.855 54.4714ZM184.97 51.1931C183.633 49.744 182.542 47.9203 181.743 45.6435L174.195 48.294C175.312 51.4755 176.93 54.2768 179.092 56.6194L184.97 51.1931ZM181.755 45.6781C180.986 43.4232 180.562 40.7267 180.562 37.5312H172.562C172.562 41.4192 173.076 45.0143 174.183 48.2594L181.755 45.6781ZM180.562 37.5312V35H172.562V37.5312H180.562ZM180.562 35C180.562 31.8128 180.994 29.1254 181.777 26.8788L174.223 24.2462C173.089 27.4996 172.562 31.1038 172.562 35H180.562ZM181.777 26.8788C182.581 24.5733 183.663 22.7556 184.972 21.3368L179.091 15.9132C176.941 18.2444 175.336 21.0517 174.223 24.2462L181.777 26.8788ZM184.97 21.3381C186.334 19.8612 187.909 18.7606 189.724 18.0058L186.651 10.6192C183.758 11.8228 181.229 13.5971 179.092 15.9119L184.97 21.3381ZM189.712 18.0105C191.556 17.2503 193.636 16.8438 196 16.8438V8.84375C192.698 8.84375 189.569 9.41633 186.663 10.6145L189.712 18.0105ZM196 16.8438C199.807 16.8438 202.53 17.4564 204.407 18.4101L208.03 11.2774C204.658 9.56446 200.568 8.84375 196 8.84375V16.8438ZM204.43 18.4215C206.421 19.4169 207.8 20.7214 208.728 22.3203L215.647 18.3047C213.867 15.2369 211.267 12.8956 208.008 11.266L204.43 18.4215ZM208.736 22.3338C209.758 24.0789 210.431 26.1813 210.675 28.7256L218.638 27.9619C218.299 24.4229 217.326 21.1711 215.639 18.2912L208.736 22.3338ZM214.656 24.3438H204.125V32.3438H214.656V24.3438ZM208.087 27.7935C207.828 25.9271 207.31 24.1524 206.428 22.5768L199.447 26.4857C199.732 26.9934 200.006 27.7604 200.163 28.894L208.087 27.7935ZM206.473 22.6597C205.528 20.8761 204.119 19.4801 202.317 18.5614L198.683 25.6886C199.006 25.8533 199.222 26.0614 199.402 26.4028L206.473 22.6597ZM202.372 18.5898C200.547 17.6239 198.467 17.2812 196.375 17.2812V25.2812C197.658 25.2812 198.328 25.5011 198.628 25.6602L202.372 18.5898ZM196.375 17.2812C194.47 17.2812 192.633 17.6949 190.938 18.575L194.625 25.675C195.096 25.4301 195.655 25.2812 196.375 25.2812V17.2812ZM190.91 18.5898C189.171 19.5104 187.784 20.8651 186.716 22.4969L193.409 26.8781C193.841 26.2182 194.267 25.8646 194.653 25.6602L190.91 18.5898ZM186.734 22.4687C185.661 24.0785 184.922 25.9574 184.426 27.9897L192.199 29.8853C192.536 28.501 192.964 27.5465 193.391 26.9063L186.734 22.4687ZM184.416 28.0346C183.934 30.1132 183.719 32.429 183.719 34.9375H191.719C191.719 32.8627 191.899 31.1784 192.209 29.8404L184.416 28.0346ZM183.719 34.9375V37.5312H191.719V34.9375H183.719ZM183.719 37.5312C183.719 40.01 183.922 42.2986 184.374 44.3576L192.188 42.6424C191.89 41.2847 191.719 39.5941 191.719 37.5312H183.719ZM184.384 44.4029C184.862 46.4634 185.607 48.3711 186.712 50.014L193.35 45.5485C192.914 44.8998 192.492 43.9532 192.178 42.5971L184.384 44.4029ZM186.76 50.0832C187.933 51.7503 189.455 53.059 191.292 53.946L194.77 46.7415C194.191 46.4619 193.713 46.0622 193.302 45.4793L186.76 50.0832ZM191.367 53.981C193.225 54.8315 195.264 55.1875 197.375 55.1875V47.1875C196.152 47.1875 195.296 46.981 194.696 46.7065L191.367 53.981ZM197.375 55.1875C198.738 55.1875 200.049 55.0797 201.253 54.8087L199.497 47.0038C199.035 47.1078 198.346 47.1875 197.375 47.1875V55.1875ZM201.345 54.7868C202.384 54.5271 203.41 54.1757 204.334 53.6781L200.541 46.6344C200.382 46.7201 200.033 46.8688 199.405 47.0257L201.345 54.7868ZM204.38 53.6529C205.074 53.2672 205.814 52.7945 206.441 52.2124L200.997 46.3501C201.033 46.317 201.019 46.3351 200.924 46.3999C200.833 46.4622 200.694 46.5493 200.495 46.6596L204.38 53.6529ZM207.719 49.2812V42.2188H199.719V49.2812H207.719ZM203.719 38.2188H196.094V46.2188H203.719V38.2188ZM200.094 42.2188V34.6875H192.094V42.2188H200.094ZM196.094 38.6875H214.688V30.6875H196.094V38.6875ZM258.125 46.5625L254.354 45.2297L254.351 45.238L254.348 45.2462L258.125 46.5625ZM254.031 53.625L256.984 56.3236L256.991 56.3157L256.998 56.3078L254.031 53.625ZM247.75 58.0938L249.306 61.7785L249.32 61.7728L249.333 61.767L247.75 58.0938ZM231.688 58.0938L230.104 61.767L230.123 61.7752L230.142 61.7833L231.688 58.0938ZM225.375 53.625L222.408 56.3078L222.423 56.3244L222.438 56.3407L225.375 53.625ZM221.25 46.5625L217.47 47.87L217.476 47.8871L217.482 47.9042L221.25 46.5625ZM221.25 25.9688L217.479 24.636L217.474 24.6486L217.47 24.6613L221.25 25.9688ZM225.344 18.9062L222.377 16.2234L222.375 16.2251L225.344 18.9062ZM231.625 14.4375L233.181 18.1222L233.189 18.119L233.197 18.1157L231.625 14.4375ZM247.688 14.4375L246.104 18.1108L246.123 18.119L246.142 18.127L247.688 14.4375ZM254 18.9062L251.033 21.5891L251.04 21.597L251.047 21.6048L254 18.9062ZM258.125 25.9688L254.354 27.3015L258.125 25.9688ZM247.875 29.3438L243.966 30.1915L243.972 30.2191L243.978 30.2467L247.875 29.3438ZM243.406 22.375L241.458 25.8685L241.498 25.8906L241.538 25.9118L243.406 22.375ZM235.875 22.375L237.771 25.8969L237.797 25.8829L237.823 25.8685L235.875 22.375ZM233.156 25L229.764 22.88L233.156 25ZM231.5 29.3438L227.591 28.496L227.587 28.5138L227.583 28.5317L231.5 29.3438ZM231.5 43.125L227.581 43.9276L227.587 43.9552L227.593 43.9826L231.5 43.125ZM233.156 47.4688L229.748 49.5618L229.761 49.5833L229.774 49.6047L233.156 47.4688ZM235.906 50.1562L233.958 53.6497L233.972 53.6576L233.986 53.6653L235.906 50.1562ZM246.188 47.4688L242.806 45.3328L242.792 45.3542L242.779 45.3757L246.188 47.4688ZM247.875 43.125L243.976 42.2324L243.972 42.2499L243.968 42.2674L247.875 43.125ZM255.594 35.3438V37.1875H263.594V35.3438H255.594ZM255.594 37.1875C255.594 40.2941 255.157 42.9575 254.354 45.2297L261.896 47.8953C263.052 44.6258 263.594 41.0393 263.594 37.1875H255.594ZM254.348 45.2462C253.547 47.5433 252.441 49.4197 251.064 50.9422L256.998 56.3078C259.163 53.9137 260.786 51.0817 261.902 47.8788L254.348 45.2462ZM251.079 50.9264C249.691 52.4446 248.064 53.6025 246.167 54.4205L249.333 61.767C252.269 60.5017 254.83 58.6804 256.984 56.3236L251.079 50.9264ZM246.194 54.409C244.322 55.1997 242.192 55.625 239.75 55.625V63.625C243.141 63.625 246.345 63.0295 249.306 61.7785L246.194 54.409ZM239.75 55.625C237.284 55.625 235.129 55.1984 233.233 54.4042L230.142 61.7833C233.121 63.0308 236.341 63.625 239.75 63.625V55.625ZM233.271 54.4205C231.369 53.6006 229.725 52.4377 228.312 50.9093L222.438 56.3407C224.608 58.6873 227.173 60.5036 230.104 61.767L233.271 54.4205ZM228.342 50.9422C226.959 49.4131 225.84 47.5279 225.018 45.2208L217.482 47.9042C218.619 51.0971 220.249 53.9202 222.408 56.3078L228.342 50.9422ZM225.03 45.255C224.242 42.975 223.812 40.3025 223.812 37.1875H215.812C215.812 41.0308 216.342 44.6084 217.47 47.87L225.03 45.255ZM223.812 37.1875V35.3438H215.812V37.1875H223.812ZM223.812 35.3438C223.812 32.2287 224.242 29.5563 225.03 27.2762L217.47 24.6613C216.342 27.9229 215.812 31.5005 215.812 35.3438H223.812ZM225.021 27.3015C225.847 24.9663 226.958 23.0866 228.312 21.5874L222.375 16.2251C220.229 18.6009 218.612 21.4295 217.479 24.636L225.021 27.3015ZM228.311 21.5891C229.693 20.0607 231.306 18.9145 233.181 18.1222L230.069 10.7528C227.111 12.0022 224.537 13.8351 222.377 16.2234L228.311 21.5891ZM233.197 18.1157C235.086 17.3083 237.232 16.875 239.688 16.875V8.875C236.268 8.875 233.039 9.48341 230.053 10.7593L233.197 18.1157ZM239.688 16.875C242.119 16.875 244.239 17.3069 246.104 18.1108L249.271 10.7642C246.302 9.48474 243.089 8.875 239.688 8.875V16.875ZM246.142 18.127C248.038 18.921 249.657 20.0671 251.033 21.5891L256.967 16.2234C254.801 13.8288 252.212 11.9957 249.233 10.748L246.142 18.127ZM251.047 21.6048C252.416 23.1018 253.532 24.9758 254.354 27.3015L261.896 24.636C260.76 21.4201 259.126 18.5857 256.953 16.2077L251.047 21.6048ZM254.354 27.3015C255.157 29.5737 255.594 32.2372 255.594 35.3438H263.594C263.594 31.492 263.052 27.9055 261.896 24.636L254.354 27.3015ZM252.469 37.1875V35.2812H244.469V37.1875H252.469ZM252.469 35.2812C252.469 32.8081 252.252 30.5148 251.772 28.4408L243.978 30.2467C244.289 31.5894 244.469 33.2544 244.469 35.2812H252.469ZM251.784 28.496C251.334 26.4224 250.621 24.4998 249.552 22.837L242.823 27.163C243.254 27.8335 243.666 28.8068 243.966 30.1915L251.784 28.496ZM249.552 22.837C248.472 21.1568 247.053 19.7776 245.275 18.8382L241.538 25.9118C241.968 26.1391 242.403 26.5099 242.823 27.163L249.552 22.837ZM245.355 18.8815C243.604 17.9053 241.678 17.4688 239.688 17.4688V25.4688C240.488 25.4688 241.042 25.6364 241.458 25.8685L245.355 18.8815ZM239.688 17.4688C237.668 17.4688 235.703 17.8911 233.927 18.8815L237.823 25.8685C238.214 25.6505 238.791 25.4688 239.688 25.4688V17.4688ZM233.979 18.8531C232.214 19.8035 230.817 21.1952 229.764 22.88L236.548 27.12C236.954 26.4715 237.37 26.1132 237.771 25.8969L233.979 18.8531ZM229.764 22.88C228.732 24.5316 228.037 26.4387 227.591 28.496L235.409 30.1915C235.713 28.7905 236.122 27.8018 236.548 27.12L229.764 22.88ZM227.583 28.5317C227.161 30.571 226.969 32.8324 226.969 35.2812H234.969C234.969 33.2301 235.131 31.5332 235.417 30.1558L227.583 28.5317ZM226.969 35.2812V37.1875H234.969V35.2812H226.969ZM226.969 37.1875C226.969 39.6195 227.161 41.8761 227.581 43.9276L235.419 42.3224C235.131 40.9156 234.969 39.2139 234.969 37.1875H226.969ZM227.593 43.9826C228.04 46.0211 228.733 47.9102 229.748 49.5618L236.565 45.3757C236.121 44.6523 235.71 43.6456 235.407 42.2674L227.593 43.9826ZM229.774 49.6047C230.833 51.2816 232.217 52.6789 233.958 53.6497L237.855 46.6628C237.429 46.4253 236.979 46.0309 236.538 45.3328L229.774 49.6047ZM233.986 53.6653C235.766 54.6394 237.728 55.0625 239.75 55.0625V47.0625C238.855 47.0625 238.254 46.8814 237.826 46.6472L233.986 53.6653ZM239.75 55.0625C241.741 55.0625 243.666 54.626 245.417 53.6497L241.52 46.6628C241.104 46.8949 240.551 47.0625 239.75 47.0625V55.0625ZM245.417 53.6497C247.17 52.672 248.553 51.2601 249.596 49.5618L242.779 45.3757C242.363 46.0524 241.934 46.4322 241.52 46.6628L245.417 53.6497ZM249.569 49.6047C250.62 47.9419 251.331 46.0375 251.782 43.9826L243.968 42.2674C243.669 43.6292 243.255 44.6206 242.806 45.3328L249.569 49.6047ZM251.774 44.0176C252.252 41.9322 252.469 39.6441 252.469 37.1875H244.469C244.469 39.1892 244.29 40.8595 243.976 42.2324L251.774 44.0176ZM265.281 13.5V9.5H261.281V13.5H265.281ZM292.312 15.0625L290.817 18.7723L292.312 15.0625ZM298.281 19.6875L294.979 21.945L294.987 21.9565L294.995 21.9678L298.281 19.6875ZM295.781 38.125L298.246 41.275L298.253 41.2703L295.781 38.125ZM290.75 40.9062L289.328 37.1677L289.045 37.2752L288.782 37.424L290.75 40.9062ZM287.156 42.9375V46.9375H288.208L289.124 46.4198L287.156 42.9375ZM272.125 42.9375L268.125 42.967L268.154 46.9375H272.125V42.9375ZM272.062 34.4688V30.4688H268.033L268.063 34.4983L272.062 34.4688ZM288.719 31.5938L285.157 29.7733L285.149 29.7891L285.141 29.8049L288.719 31.5938ZM286.594 22.7188L284.678 26.2303L284.695 26.2393L284.711 26.2482L286.594 22.7188ZM276.25 21.9688V17.9688H272.25V21.9688H276.25ZM276.25 59V63H280.25V59H276.25ZM265.281 59H261.281V63H265.281V59ZM290.188 59L286.61 60.7889L287.715 63H290.188V59ZM280.125 38.875L280.103 34.8751L273.67 34.9096L276.547 40.6639L280.125 38.875ZM291.75 38.8125L295.304 36.9765L294.179 34.7994L291.728 34.8126L291.75 38.8125ZM301.938 58.5312H305.938V57.559L305.491 56.6952L301.938 58.5312ZM301.938 59V63H305.938V59H301.938ZM265.281 17.5H283.188V9.5H265.281V17.5ZM283.188 17.5C286.301 17.5 288.814 17.9646 290.817 18.7723L293.808 11.3527C290.645 10.0771 287.074 9.5 283.188 9.5V17.5ZM290.817 18.7723C292.763 19.5573 294.084 20.6353 294.979 21.945L301.583 17.43C299.687 14.6564 297.028 12.6511 293.808 11.3527L290.817 18.7723ZM294.995 21.9678C295.858 23.2113 296.406 24.8932 296.406 27.25H304.406C304.406 23.6068 303.538 20.247 301.568 17.4072L294.995 21.9678ZM296.406 27.25C296.406 29.4651 296.057 31.0252 295.559 32.0968L302.816 35.4657C303.943 33.0373 304.406 30.2433 304.406 27.25H296.406ZM295.559 32.0968C295.001 33.2994 294.253 34.2389 293.31 34.9797L298.253 41.2703C300.226 39.7195 301.749 37.7631 302.816 35.4657L295.559 32.0968ZM293.316 34.975C292.231 35.8242 290.915 36.5639 289.328 37.1677L292.172 44.6448C294.419 43.7903 296.457 42.6758 298.246 41.275L293.316 34.975ZM288.782 37.424L285.188 39.4552L289.124 46.4198L292.718 44.3885L288.782 37.424ZM287.156 38.9375H272.125V46.9375H287.156V38.9375ZM276.125 42.908L276.062 34.4392L268.063 34.4983L268.125 42.967L276.125 42.908ZM272.062 38.4688H283.188V30.4688H272.062V38.4688ZM283.188 38.4688C285.036 38.4688 286.903 38.1406 288.572 37.2303L284.741 30.2072C284.576 30.2969 284.131 30.4688 283.188 30.4688V38.4688ZM288.572 37.2303C290.191 36.3471 291.466 35.0443 292.296 33.3826L285.141 29.8049C285.055 29.9765 284.955 30.0904 284.741 30.2072L288.572 37.2303ZM292.28 33.4142C293.106 31.7995 293.438 30.0333 293.438 28.25H285.438C285.438 29.0501 285.29 29.513 285.157 29.7733L292.28 33.4142ZM293.438 28.25C293.438 26.4574 293.11 24.6776 292.28 23.0546L285.157 26.6954C285.286 26.9474 285.438 27.4176 285.438 28.25H293.438ZM292.28 23.0546C291.426 21.3821 290.128 20.0702 288.476 19.1893L284.711 26.2482C284.935 26.3673 285.053 26.4929 285.157 26.6954L292.28 23.0546ZM288.509 19.2072C286.856 18.3055 285.018 17.9688 283.188 17.9688V25.9688C284.065 25.9688 284.498 26.132 284.678 26.2303L288.509 19.2072ZM283.188 17.9688H276.25V25.9688H283.188V17.9688ZM272.25 21.9688V59H280.25V21.9688H272.25ZM276.25 55H265.281V63H276.25V55ZM269.281 59V13.5H261.281V59H269.281ZM293.765 57.2111L283.703 37.0861L276.547 40.6639L286.61 60.7889L293.765 57.2111ZM280.147 42.8749L291.772 42.8124L291.728 34.8126L280.103 34.8751L280.147 42.8749ZM288.196 40.6485L298.384 60.3673L305.491 56.6952L295.304 36.9765L288.196 40.6485ZM297.938 58.5312V59H305.938V58.5312H297.938ZM301.938 55H290.188V63H301.938V55ZM318.688 13.5H322.688V9.5H318.688V13.5ZM318.688 59V63H322.688V59H318.688ZM307.75 59H303.75V63H307.75V59ZM307.75 13.5V9.5H303.75V13.5H307.75ZM314.688 13.5V59H322.688V13.5H314.688ZM318.688 55H307.75V63H318.688V55ZM311.75 59V13.5H303.75V59H311.75ZM307.75 17.5H318.688V9.5H307.75V17.5ZM346.25 23.0625L350.072 24.2423L350.168 23.9301L350.213 23.6064L346.25 23.0625ZM335.156 59V63H338.108L338.978 60.1798L335.156 59ZM323.375 59L319.62 57.6204L317.644 63H323.375V59ZM340.094 13.5V9.5H337.302L336.339 12.1204L340.094 13.5ZM347.562 13.5L351.525 14.0439L352.149 9.5H347.562V13.5ZM355.438 59L351.616 60.1829L352.488 63H355.438V59ZM344.312 23.0625L340.357 23.6571L340.402 23.9563L340.491 24.2454L344.312 23.0625ZM342.875 13.5V9.5H338.229L338.919 14.0946L342.875 13.5ZM350.438 13.5L354.19 12.1136L353.224 9.5H350.438V13.5ZM367.25 59V63H372.992L371.002 57.6136L367.25 59ZM355 42.0312H359V38.0312H355V42.0312ZM355 50.5V54.5H359V50.5H355ZM331.656 50.5H327.656V54.5H331.656V50.5ZM331.656 42.0312V38.0312H327.656V42.0312H331.656ZM342.428 21.8827L331.334 57.8202L338.978 60.1798L350.072 24.2423L342.428 21.8827ZM335.156 55H323.375V63H335.156V55ZM327.13 60.3796L343.848 14.8796L336.339 12.1204L319.62 57.6204L327.13 60.3796ZM340.094 17.5H347.562V9.5H340.094V17.5ZM343.6 12.9561L342.287 22.5186L350.213 23.6064L351.525 14.0439L343.6 12.9561ZM359.259 57.8171L348.134 21.8796L340.491 24.2454L351.616 60.1829L359.259 57.8171ZM348.268 22.4679L346.831 12.9054L338.919 14.0946L340.357 23.6571L348.268 22.4679ZM342.875 17.5H350.438V9.5H342.875V17.5ZM346.685 14.8864L363.498 60.3864L371.002 57.6136L354.19 12.1136L346.685 14.8864ZM367.25 55H355.438V63H367.25V55ZM351 42.0312V50.5H359V42.0312H351ZM355 46.5H331.656V54.5H355V46.5ZM335.656 50.5V42.0312H327.656V50.5H335.656ZM331.656 46.0312H355V38.0312H331.656V46.0312ZM393.719 45L389.952 46.3453L389.96 46.3673L389.968 46.3893L393.719 45ZM390.125 41.875L388.336 45.4527L388.379 45.474L388.422 45.4943L390.125 41.875ZM386 40.25L384.735 44.0447L384.742 44.0471L384.749 44.0493L386 40.25ZM380.219 38L378.545 41.633L378.562 41.6408L378.579 41.6485L380.219 38ZM375.25 35.0312L372.779 38.1765L372.793 38.1875L372.807 38.1984L375.25 35.0312ZM371.781 31.0312L368.282 32.9698L368.288 32.9799L368.294 32.99L371.781 31.0312ZM371.812 20.375L375.303 22.3294L375.308 22.3196L375.313 22.3097L371.812 20.375ZM375.469 16.3438L377.777 19.6104L377.786 19.6045L375.469 16.3438ZM381.031 13.7812L382.09 17.6386L382.108 17.6337L382.125 17.6288L381.031 13.7812ZM396.812 14.625L395.144 18.2603L395.162 18.2685L395.18 18.2766L396.812 14.625ZM402.812 19.5312L399.499 21.7725L399.512 21.7912L399.525 21.8098L402.812 19.5312ZM405 27V31H409V27H405ZM394.094 27H390.094V31H394.094V27ZM393.375 23.9688L389.832 25.8248L389.849 25.8576L389.867 25.89L393.375 23.9688ZM382.156 23.4688L385.438 25.7559L385.454 25.7331L385.469 25.71L382.156 23.4688ZM382 27.625L378.672 29.8438L378.72 29.9155L378.77 29.9851L382 27.625ZM383.656 29.1562L381.415 32.4694L381.437 32.4844L381.46 32.4991L383.656 29.1562ZM386.281 30.5312L384.706 34.2078L384.719 34.2136L384.732 34.2192L386.281 30.5312ZM389.781 31.8125L388.553 35.6194L388.566 35.6233L389.781 31.8125ZM396.219 34.4062L394.398 37.968L394.422 37.9801L394.446 37.9918L396.219 34.4062ZM401 37.625L398.267 40.5461L398.292 40.5688L398.316 40.5911L401 37.625ZM403.969 41.6875L400.305 43.2934L400.314 43.3144L400.324 43.3352L403.969 41.6875ZM403.812 52.2812L407.39 54.0701L403.812 52.2812ZM400.406 56.3125L402.77 59.5396L402.784 59.5288L402.799 59.5179L400.406 56.3125ZM381.281 58.75L380.244 62.6132L380.265 62.6188L380.286 62.6242L381.281 58.75ZM375.156 56L372.903 59.3049L372.916 59.3137L372.929 59.3224L375.156 56ZM370.75 51.2188L367.25 53.155L367.262 53.1772L367.275 53.1993L370.75 51.2188ZM369.125 44.25V40.25H365.125V44.25H369.125ZM380.125 44.25H384.125V40.25H380.125V44.25ZM382.219 49.8438L379.686 52.9396L379.714 52.9629L379.743 52.9857L382.219 49.8438ZM384.75 51.0312L383.78 54.9118L383.818 54.9214L383.857 54.9302L384.75 51.0312ZM391.562 50.7812L393.244 54.4105L393.28 54.3938L393.316 54.3763L391.562 50.7812ZM393.438 49.1562L396.877 51.1984L396.891 51.1753L396.904 51.1521L393.438 49.1562ZM398.031 46.9062C398.031 45.8076 397.87 44.6903 397.47 43.6107L389.968 46.3893C389.985 46.4347 390.031 46.5882 390.031 46.9062H398.031ZM397.486 43.6547C397.008 42.3162 396.177 41.2364 395.22 40.3854L389.905 46.3646C389.99 46.4403 390.017 46.4797 390.014 46.4753C390.013 46.4728 390.004 46.4603 389.992 46.4373C389.98 46.4142 389.965 46.3834 389.952 46.3453L397.486 43.6547ZM395.22 40.3854C394.258 39.5302 393.066 38.8384 391.828 38.2557L388.422 45.4943C389.309 45.9116 389.742 46.2198 389.905 46.3646L395.22 40.3854ZM391.914 38.2973C390.632 37.6563 389.056 37.045 387.251 36.4507L384.749 44.0493C386.361 44.58 387.535 45.052 388.336 45.4527L391.914 38.2973ZM387.265 36.4553C385.388 35.8295 383.586 35.1279 381.858 34.3515L378.579 41.6485C380.56 42.5388 382.612 43.3372 384.735 44.0447L387.265 36.4553ZM381.892 34.367C380.282 33.6253 378.889 32.7868 377.693 31.8641L372.807 38.1984C374.527 39.5257 376.447 40.6664 378.545 41.633L381.892 34.367ZM377.721 31.886C376.65 31.0442 375.849 30.1064 375.269 29.0725L368.294 32.99C369.421 34.9978 370.933 36.7267 372.779 38.1765L377.721 31.886ZM375.28 29.0927C374.803 28.2323 374.5 27.128 374.5 25.6562H366.5C366.5 28.2678 367.051 30.7468 368.282 32.9698L375.28 29.0927ZM374.5 25.6562C374.5 24.3166 374.793 23.24 375.303 22.3294L368.322 18.4206C367.082 20.635 366.5 23.0792 366.5 25.6562H374.5ZM375.313 22.3097C375.88 21.285 376.678 20.3868 377.777 19.6104L373.16 13.0771C371.134 14.509 369.495 16.2983 368.312 18.4403L375.313 22.3097ZM377.786 19.6045C378.94 18.7842 380.356 18.1146 382.09 17.6386L379.972 9.92395C377.456 10.6146 375.164 11.6533 373.152 13.083L377.786 19.6045ZM382.125 17.6288C383.848 17.1388 385.798 16.875 388 16.875V8.875C385.16 8.875 382.464 9.21532 379.937 9.93373L382.125 17.6288ZM388 16.875C390.866 16.875 393.216 17.3756 395.144 18.2603L398.481 10.9897C395.325 9.54107 391.8 8.875 388 8.875V16.875ZM395.18 18.2766C397.128 19.1477 398.519 20.3225 399.499 21.7725L406.126 17.29C404.231 14.49 401.622 12.3939 398.445 10.9734L395.18 18.2766ZM399.525 21.8098C400.463 23.1639 401 24.8352 401 27H409C409 23.4148 408.078 20.1069 406.1 17.2527L399.525 21.8098ZM405 23H394.094V31H405V23ZM398.094 27C398.094 25.2834 397.73 23.594 396.883 22.0475L389.867 25.89C389.978 26.0935 390.094 26.4249 390.094 27H398.094ZM396.918 22.1127C396.058 20.4712 394.754 19.225 393.164 18.3768L389.399 25.4357C389.684 25.5875 389.775 25.7163 389.832 25.8248L396.918 22.1127ZM393.164 18.3768C391.486 17.4821 389.613 17.1562 387.75 17.1562V25.1562C388.72 25.1562 389.201 25.3304 389.399 25.4357L393.164 18.3768ZM387.75 17.1562C385.996 17.1562 384.248 17.4187 382.657 18.126L385.906 25.4365C386.189 25.3105 386.754 25.1562 387.75 25.1562V17.1562ZM382.657 18.126C381.173 18.7855 379.819 19.7851 378.843 21.2275L385.469 25.71C385.47 25.709 385.473 25.7045 385.481 25.6958C385.489 25.687 385.506 25.6707 385.534 25.6481C385.592 25.6027 385.705 25.5257 385.906 25.4365L382.657 18.126ZM378.875 21.1816C377.931 22.5361 377.438 24.0939 377.438 25.75H385.438C385.438 25.7339 385.439 25.7291 385.438 25.7333C385.438 25.7351 385.437 25.7384 385.436 25.7427C385.435 25.747 385.434 25.7518 385.432 25.7567C385.431 25.7616 385.429 25.766 385.428 25.7697C385.426 25.7734 385.425 25.7757 385.425 25.7766C385.424 25.7787 385.427 25.7718 385.438 25.7559L378.875 21.1816ZM377.438 25.75C377.438 27.213 377.851 28.6125 378.672 29.8438L385.328 25.4062C385.352 25.4426 385.385 25.5045 385.409 25.585C385.433 25.6649 385.438 25.7254 385.438 25.75H377.438ZM378.77 29.9851C379.501 30.9854 380.425 31.7995 381.415 32.4694L385.897 25.8431C385.471 25.5546 385.29 25.3479 385.23 25.2649L378.77 29.9851ZM381.46 32.4991C382.43 33.1369 383.524 33.7013 384.706 34.2078L387.857 26.8547C386.997 26.4862 386.341 26.1339 385.853 25.8134L381.46 32.4991ZM384.732 34.2192C385.898 34.7086 387.174 35.1743 388.553 35.6193L391.009 28.0057C389.805 27.6173 388.748 27.2289 387.83 26.8433L384.732 34.2192ZM388.566 35.6233C390.815 36.3408 392.752 37.1268 394.398 37.968L398.039 30.8445C395.935 29.7691 393.581 28.8259 390.997 28.0017L388.566 35.6233ZM394.446 37.9918C396.057 38.7887 397.311 39.6512 398.267 40.5461L403.733 34.7039C402.106 33.1821 400.172 31.8988 397.992 30.8207L394.446 37.9918ZM398.316 40.5911C399.238 41.4249 399.88 42.3237 400.305 43.2934L407.632 40.0816C406.724 38.0096 405.387 36.2001 403.684 34.6589L398.316 40.5911ZM400.324 43.3352C400.745 44.2668 401 45.4113 401 46.8438H409C409 44.4429 408.567 42.1499 407.614 40.0398L400.324 43.3352ZM401 46.8438C401 48.3598 400.709 49.5439 400.235 50.4924L407.39 54.0701C408.499 51.8519 409 49.411 409 46.8438H401ZM400.235 50.4924C399.734 51.4935 399.015 52.3598 398.013 53.1071L402.799 59.5179C404.756 58.0569 406.307 56.2357 407.39 54.0701L400.235 50.4924ZM398.043 53.0854C397.018 53.836 395.709 54.4674 394.041 54.9222L396.146 62.6403C398.604 61.9701 400.836 60.9557 402.77 59.5396L398.043 53.0854ZM394.041 54.9222C392.379 55.3755 390.439 55.625 388.188 55.625V63.625C391.02 63.625 393.683 63.312 396.146 62.6403L394.041 54.9222ZM388.188 55.625C386.191 55.625 384.224 55.376 382.276 54.8758L380.286 62.6242C382.88 63.2907 385.517 63.625 388.188 63.625V55.625ZM382.319 54.8868C380.469 54.3901 378.833 53.6492 377.384 52.6776L372.929 59.3224C375.146 60.8091 377.594 61.9016 380.244 62.6132L382.319 54.8868ZM377.41 52.6951C376.082 51.7896 375.03 50.6498 374.225 49.2382L367.275 53.1993C368.679 55.6627 370.564 57.7104 372.903 59.3049L377.41 52.6951ZM374.25 49.2825C373.555 48.0252 373.125 46.3958 373.125 44.25H365.125C365.125 47.4792 365.779 50.4956 367.25 53.155L374.25 49.2825ZM369.125 48.25H380.125V40.25H369.125V48.25ZM376.125 44.25C376.125 45.9117 376.342 47.5581 376.925 49.0666L384.387 46.1834C384.262 45.8586 384.125 45.255 384.125 44.25H376.125ZM376.925 49.0666C377.502 50.5588 378.407 51.8933 379.686 52.9396L384.752 46.7479C384.655 46.6692 384.519 46.5245 384.387 46.1834L376.925 49.0666ZM379.743 52.9857C380.947 53.9338 382.328 54.5488 383.78 54.9118L385.72 47.1507C385.172 47.0137 384.866 46.837 384.694 46.7018L379.743 52.9857ZM383.857 54.9302C385.214 55.2412 386.669 55.375 388.188 55.375V47.375C387.123 47.375 386.286 47.2797 385.643 47.1323L383.857 54.9302ZM388.188 55.375C389.908 55.375 391.672 55.1393 393.244 54.4105L389.881 47.152C389.745 47.2148 389.259 47.375 388.188 47.375V55.375ZM393.316 54.3763C394.712 53.6953 396.001 52.6738 396.877 51.1984L389.998 47.1141C390.033 47.0549 390.062 47.0309 390.052 47.0397C390.038 47.0521 389.969 47.108 389.809 47.1862L393.316 54.3763ZM396.904 51.1521C397.658 49.8423 398.031 48.4015 398.031 46.9062H390.031C390.031 47.036 390.009 47.0952 389.971 47.1604L396.904 51.1521Z" fill="black" mask="url(#path-1-outside-1_0_1)"/>
</g>
<defs>
<filter id="filter0_i_0_1" x="18.125" y="12.8438" width="386.875" height="50.7812" filterUnits="userSpaceOnUse" color-interpolation-filters="sRGB">
<feFlood flood-opacity="0" result="BackgroundImageFix"/>
<feBlend mode="normal" in="SourceGraphic" in2="BackgroundImageFix" result="shape"/>
<feColorMatrix in="SourceAlpha" type="matrix" values="0 0 0 0 0 0 0 0 0 0 0 0 0 0 0 0 0 0 127 0" result="hardAlpha"/>
<feOffset dy="4"/>
<feGaussianBlur stdDeviation="2"/>
<feComposite in2="hardAlpha" operator="arithmetic" k2="-1" k3="1"/>
<feColorMatrix type="matrix" values="0 0 0 0 0 0 0 0 0 0 0 0 0 0 0 0 0 0 0.25 0"/>
<feBlend mode="normal" in2="shape" result="effect1_innerShadow_0_1"/>
</filter>
<clipPath id="clip0_0_1">
<rect width="1440" height="1890" fill="white" transform="translate(-504 -674)"/>
</clipPath>
</defs>
</svg>
